<svg width="216" height="138" viewBox="0 0 216 138" fill="none" xmlns="http://www.w3.org/2000/svg">
<g filter="url(#filter0_d_2661_444)">
<path d="M107.075 0.276619C106.724 0.468163 98.0721 5.00142 87.8404 10.3647C77.6086 15.728 68.9731 20.2772 68.6539 20.4847C67.9994 20.8838 67.8398 21.3467 68.159 22.0011C68.3027 22.3044 68.5421 22.464 68.9252 22.5438L69.4839 22.6396V24.9541C69.4839 27.6357 69.6754 28.1944 70.8407 29.0245L71.559 29.5352V32.2488C71.559 34.5633 71.6069 35.0741 71.8623 35.6328C72.2134 36.4149 73.0754 37.1492 73.9054 37.3886L74.512 37.5642V51.8184V66.0886L74.0171 66.1843C73.251 66.344 72.5486 66.8388 72.0698 67.5411C71.6388 68.1796 71.6388 68.2115 71.5909 71.1805L71.527 74.1654L71.112 74.3889C70.5693 74.6762 70.0745 75.203 69.7393 75.8734C69.5318 76.2724 69.4839 76.879 69.4839 78.6667C69.4839 79.9278 69.5477 81.0291 69.6116 81.1249C69.6754 81.2207 69.8829 81.3803 70.0745 81.492C70.5693 81.7474 145.336 81.7474 145.831 81.492C146.022 81.3803 146.23 81.2207 146.294 81.1249C146.358 81.0291 146.421 79.9278 146.421 78.6667C146.421 76.879 146.374 76.2724 146.166 75.8734C145.831 75.203 145.336 74.6762 144.793 74.3889L144.346 74.1495V71.4838C144.346 70.0153 144.267 68.5467 144.171 68.2115C143.931 67.3496 142.974 66.4397 142.064 66.2003L141.314 66.0247L141.346 51.7865L141.393 37.5642L142 37.3886C142.83 37.1492 143.692 36.4149 144.043 35.6328C144.299 35.0741 144.346 34.5633 144.346 32.2488V29.5352L145.065 29.0245C146.23 28.1944 146.421 27.6517 146.421 24.9222V22.6077H146.884C147.204 22.6077 147.459 22.464 147.682 22.1927C148.097 21.6659 148.097 21.3147 147.73 20.8838C147.427 20.5166 108.607 0.0850754 108.064 0.00526428C107.873 -0.0266571 107.426 0.101036 107.075 0.276619ZM124.33 10.8914C133.269 15.5843 140.659 19.511 140.739 19.5908C140.835 19.6706 128.304 19.7345 107.953 19.7345C87.4732 19.7345 75.0706 19.6706 75.1664 19.5908C75.358 19.3833 107.665 2.36766 107.889 2.3517C107.969 2.33574 115.375 6.18262 124.33 10.8914ZM143.963 22.3044C144.219 22.5917 144.283 22.9429 144.314 24.4752C144.378 26.5024 144.235 27.093 143.612 27.3804C143.053 27.6357 72.8679 27.6357 72.3092 27.3804C71.7026 27.109 71.559 26.5663 71.559 24.6189C71.559 23.0386 71.6069 22.7513 71.8942 22.3842L72.2134 21.9692H107.937H143.66L143.963 22.3044ZM86.5634 30.5089V31.3869H80.1785H73.7937V30.5089V29.631H80.1785H86.5634V30.5089ZM99.3331 32.2967C99.3331 34.5793 99.381 35.0741 99.6364 35.6328C99.9876 36.4149 100.85 37.1492 101.68 37.3886L102.286 37.5642V51.8184V66.0886L101.791 66.2003C100.897 66.3759 100.179 66.9505 99.7481 67.8125C99.3491 68.5946 99.3331 68.7702 99.3331 71.2443V73.8462H94.0656H88.7981V71.2443C88.7981 68.7702 88.7821 68.5946 88.3831 67.8125C87.9521 66.9505 87.2338 66.3759 86.3399 66.2003L85.8451 66.0886V51.8184V37.5642L86.4517 37.3886C87.2817 37.1492 88.1437 36.4149 88.4948 35.6328C88.7502 35.0741 88.7981 34.5793 88.7981 32.2967V29.631H94.0656H99.3331V32.2967ZM114.338 30.5089V31.3869H107.953H101.568V30.5089V29.631H107.953H114.338V30.5089ZM127.107 32.2967C127.107 34.5793 127.155 35.0741 127.411 35.6328C127.762 36.4149 128.624 37.1492 129.454 37.3886L130.06 37.5642V51.8184V66.0886L129.565 66.2003C128.672 66.3759 127.953 66.9505 127.522 67.8125C127.123 68.5946 127.107 68.7702 127.107 71.2443V73.8462H121.84H116.572V71.2443C116.572 68.7702 116.556 68.5946 116.157 67.8125C115.726 66.9505 115.008 66.3759 114.114 66.2003L113.619 66.0886V51.8184V37.5642L114.226 37.3886C115.056 37.1492 115.918 36.4149 116.269 35.6328C116.524 35.0741 116.572 34.5793 116.572 32.2967V29.631H121.84H127.107V32.2967ZM142.112 30.5089V31.3869H135.727H129.342V30.5089V29.631H135.727H142.112V30.5089ZM86.5634 34.1483C86.5634 34.4356 86.4676 34.8187 86.3399 34.9943C86.1165 35.2816 85.8451 35.2976 80.386 35.3455C73.8735 35.3774 73.9054 35.3934 73.8256 34.292L73.7777 33.6216H80.1626H86.5634V34.1483ZM114.306 34.292C114.226 35.3774 114.242 35.3774 107.953 35.3774C101.664 35.3774 101.68 35.3774 101.6 34.292L101.552 33.6216H107.953H114.354L114.306 34.292ZM142.112 34.2441C142.112 35.3934 142.176 35.3774 135.727 35.3774C129.278 35.3774 129.342 35.3934 129.342 34.2441V33.6216H135.727H142.112V34.2441ZM81.1842 37.5642L83.6902 37.66V51.8503V66.0247H80.1785H76.6669V51.8503C76.6669 44.0448 76.7147 37.6121 76.7786 37.5642C76.9063 37.4205 77.9758 37.4205 81.1842 37.5642ZM111.432 51.7705L111.464 66.0247H107.953H104.441V51.8503C104.441 44.0448 104.489 37.6121 104.553 37.5482C104.617 37.5004 106.181 37.4684 108.017 37.4844L111.385 37.5323L111.432 51.7705ZM139.207 51.7705L139.238 66.0247H135.727H132.215V51.8503C132.215 44.0448 132.263 37.6121 132.327 37.5482C132.391 37.5004 133.955 37.4684 135.791 37.4844L139.159 37.5323L139.207 51.7705ZM86.2122 68.5148C86.4676 68.6904 86.5634 68.9139 86.5634 69.3927V70.0153H80.1785H73.7937V69.3927C73.7937 68.2435 73.7298 68.2594 80.1785 68.2594C85.063 68.2594 85.9089 68.2913 86.2122 68.5148ZM113.986 68.5148C114.242 68.6904 114.338 68.9139 114.338 69.3927V70.0153H107.953H101.568V69.4247C101.568 68.2275 101.392 68.2594 107.857 68.2594C112.821 68.2594 113.683 68.2913 113.986 68.5148ZM141.761 68.5148C142.016 68.6904 142.112 68.9139 142.112 69.3927V70.0153H135.727H129.342V69.3927C129.342 68.2435 129.278 68.2594 135.727 68.2594C140.611 68.2594 141.457 68.2913 141.761 68.5148ZM86.5634 73.0481V73.8462H80.1785H73.7937V73.0481V72.25H80.1785H86.5634V73.0481ZM114.338 73.0481V73.8462H107.953H101.568V73.0481V72.25H107.953H114.338V73.0481ZM142.112 73.0481V73.8462H135.727H129.342V73.0481V72.25H135.727H142.112V73.0481ZM143.5 76.2405C144.139 76.464 144.346 76.9748 144.346 78.3156V79.4329H107.953H71.559V78.3156C71.559 77.0226 71.7665 76.464 72.3411 76.2565C72.9477 76.033 142.862 76.033 143.5 76.2405Z" fill="black"/>
</g>
<path d="M10.776 122.548C10.776 123.748 9.984 124.372 8.616 124.372H5.592V120.652H8.568C9.936 120.652 10.776 121.348 10.776 122.548ZM10.368 115.9C10.368 117.052 9.624 117.652 8.28 117.652H5.592V114.124H8.28C9.624 114.124 10.368 114.748 10.368 115.9ZM14.928 123.1C14.928 121.18 13.656 119.452 11.688 119.044C13.32 118.564 14.544 117.244 14.544 115.204C14.544 112.54 12.504 110.836 9.072 110.836H1.488V127.684H9.336C12.888 127.684 14.928 125.884 14.928 123.1ZM16.4923 120.964C16.4923 125.188 19.1083 127.876 22.3723 127.876C24.3643 127.876 25.7803 126.964 26.5243 125.788V127.684H30.6283V114.292H26.5243V116.188C25.8043 115.012 24.3883 114.1 22.3963 114.1C19.1083 114.1 16.4923 116.74 16.4923 120.964ZM26.5243 120.988C26.5243 123.124 25.1563 124.3 23.5963 124.3C22.0603 124.3 20.6683 123.1 20.6683 120.964C20.6683 118.828 22.0603 117.676 23.5963 117.676C25.1563 117.676 26.5243 118.852 26.5243 120.988ZM42.8374 127.684H46.9174V119.86C46.9174 116.26 44.8534 114.148 41.7574 114.148C39.9574 114.148 38.5174 114.94 37.7014 116.068V114.292H33.5974V127.684H37.7014V120.412C37.7014 118.588 38.7094 117.58 40.2694 117.58C41.8294 117.58 42.8374 118.588 42.8374 120.412V127.684ZM49.7693 127.684H53.8733V122.068L57.9533 127.684H63.0413L57.4253 121.012L62.9933 114.292H57.9293L53.8733 119.74V109.924H49.7693V127.684ZM69.6911 127.684H73.7951V110.836H69.6911V127.684ZM86.0093 127.684H90.0893V119.86C90.0893 116.26 88.0253 114.148 84.9293 114.148C83.1293 114.148 81.6893 114.94 80.8733 116.068V114.292H76.7693V127.684H80.8733V120.412C80.8733 118.588 81.8813 117.58 83.4413 117.58C85.0013 117.58 86.0093 118.588 86.0093 120.412V127.684ZM93.3491 127.684H97.4531V117.7H99.6611V114.292H97.4531V114.172C97.4531 112.756 98.0051 112.276 99.5891 112.372V108.892C95.5091 108.676 93.3491 110.404 93.3491 113.908V114.292H91.8611V117.7H93.3491V127.684ZM114.694 120.988C114.694 116.74 111.67 114.1 107.734 114.1C103.822 114.1 100.774 116.74 100.774 120.988C100.774 125.236 103.75 127.876 107.686 127.876C111.622 127.876 114.694 125.236 114.694 120.988ZM104.95 120.988C104.95 118.708 106.246 117.652 107.734 117.652C109.174 117.652 110.518 118.708 110.518 120.988C110.518 123.244 109.15 124.324 107.686 124.324C106.198 124.324 104.95 123.244 104.95 120.988ZM120.975 121.468C120.975 119.164 122.103 118.492 124.047 118.492H125.175V114.148C123.375 114.148 121.911 115.108 120.975 116.524V114.292H116.871V127.684H120.975V121.468ZM145.592 127.684H149.672V119.86C149.672 116.26 147.536 114.148 144.224 114.148C142.28 114.148 140.6 115.228 139.712 116.644C138.8 115.036 137.168 114.148 135.152 114.148C133.4 114.148 132.032 114.892 131.24 115.972V114.292H127.136V127.684H131.24V120.412C131.24 118.66 132.248 117.7 133.808 117.7C135.368 117.7 136.376 118.66 136.376 120.412V127.684H140.456V120.412C140.456 118.66 141.464 117.7 143.024 117.7C144.584 117.7 145.592 118.66 145.592 120.412V127.684ZM151.727 120.964C151.727 125.188 154.343 127.876 157.607 127.876C159.599 127.876 161.015 126.964 161.759 125.788V127.684H165.863V114.292H161.759V116.188C161.039 115.012 159.623 114.1 157.631 114.1C154.343 114.1 151.727 116.74 151.727 120.964ZM161.759 120.988C161.759 123.124 160.391 124.3 158.831 124.3C157.295 124.3 155.903 123.1 155.903 120.964C155.903 118.828 157.295 117.676 158.831 117.676C160.391 117.676 161.759 118.852 161.759 120.988ZM169.48 123.028C169.48 126.508 171.424 127.684 174.208 127.684H176.296V124.204H174.832C173.92 124.204 173.584 123.868 173.584 123.076V117.7H176.272V114.292H173.584V111.028H169.48V114.292H167.848V117.7H169.48V123.028ZM178.582 127.684H182.686V114.292H178.582V127.684ZM180.646 112.9C182.086 112.9 183.07 111.916 183.07 110.692C183.07 109.444 182.086 108.46 180.646 108.46C179.182 108.46 178.198 109.444 178.198 110.692C178.198 111.916 179.182 112.9 180.646 112.9ZM198.764 120.988C198.764 116.74 195.74 114.1 191.804 114.1C187.892 114.1 184.844 116.74 184.844 120.988C184.844 125.236 187.82 127.876 191.756 127.876C195.692 127.876 198.764 125.236 198.764 120.988ZM189.02 120.988C189.02 118.708 190.316 117.652 191.804 117.652C193.244 117.652 194.588 118.708 194.588 120.988C194.588 123.244 193.22 124.324 191.756 124.324C190.268 124.324 189.02 123.244 189.02 120.988ZM210.181 127.684H214.261V119.86C214.261 116.26 212.197 114.148 209.101 114.148C207.301 114.148 205.861 114.94 205.045 116.068V114.292H200.941V127.684H205.045V120.412C205.045 118.588 206.053 117.58 207.613 117.58C209.173 117.58 210.181 118.588 210.181 120.412V127.684Z" fill="black"/>
<defs>
<filter id="filter0_d_2661_444" x="64" y="0" width="88" height="89.6836" filterUnits="userSpaceOnUse" color-interpolation-filters="sRGB">
<feFlood flood-opacity="0" result="BackgroundImageFix"/>
<feColorMatrix in="SourceAlpha" type="matrix" values="0 0 0 0 0 0 0 0 0 0 0 0 0 0 0 0 0 0 127 0" result="hardAlpha"/>
<feOffset dy="4"/>
<feGaussianBlur stdDeviation="2"/>
<feComposite in2="hardAlpha" operator="out"/>
<feColorMatrix type="matrix" values="0 0 0 0 0 0 0 0 0 0 0 0 0 0 0 0 0 0 0.25 0"/>
<feBlend mode="normal" in2="BackgroundImageFix" result="effect1_dropShadow_2661_444"/>
<feBlend mode="normal" in="SourceGraphic" in2="effect1_dropShadow_2661_444" result="shape"/>
</filter>
</defs>
</svg>
