<svg width="32" height="32" viewBox="0 0 32 32" fill="none" xmlns="http://www.w3.org/2000/svg">
<path d="M1 6.72099C0.447715 6.72099 0 7.16871 0 7.72099C0 8.27328 0.447715 8.72099 1 8.72099L1 6.72099ZM31 8.72099C31.5523 8.72099 32 8.27328 32 7.72099C32 7.16871 31.5523 6.72099 31 6.72099V8.72099ZM4.33333 7.72099V6.72099H3.33333V7.72099H4.33333ZM27.6667 7.72099H28.6667V6.72099H27.6667V7.72099ZM26.5697 24.0505L27.5305 24.3279L26.5697 24.0505ZM18.8733 30.7589L19.0399 31.7449L18.8733 30.7589ZM13.1267 30.7589L13.2933 29.7729L13.2933 29.7729L13.1267 30.7589ZM12.8638 30.7145L12.6972 31.7005L12.6972 31.7005L12.8638 30.7145ZM5.43025 24.0505L4.46948 24.3278L5.43025 24.0505ZM19.1362 30.7145L18.9696 29.7285L19.1362 30.7145ZM9.0709 5.14898L9.97863 5.56855L9.0709 5.14898ZM10.6967 2.96853L10.0293 2.22381L10.0293 2.22381L10.6967 2.96853ZM13.1299 1.5116L13.4779 2.4491L13.1299 1.5116ZM18.8701 1.51161L19.2181 0.574107V0.574107L18.8701 1.51161ZM22.9291 5.14898L23.8368 4.72941V4.72941L22.9291 5.14898ZM1 8.72099L31 8.72099V6.72099L1 6.72099L1 8.72099ZM18.9696 29.7285L18.7066 29.7729L19.0399 31.7449L19.3028 31.7005L18.9696 29.7285ZM13.2933 29.7729L13.0304 29.7285L12.6972 31.7005L12.9601 31.7449L13.2933 29.7729ZM26.6667 7.72099V16.293H28.6667V7.72099H26.6667ZM5.33333 16.2931L5.33333 7.72099H3.33333L3.33333 16.2931H5.33333ZM26.6667 16.293C26.6667 18.8244 26.3105 21.3428 25.6089 23.7731L27.5305 24.3279C28.2841 21.7171 28.6667 19.0119 28.6667 16.293H26.6667ZM18.7066 29.7729C16.9147 30.0757 15.0853 30.0757 13.2933 29.7729L12.9601 31.7449C14.9726 32.085 17.0273 32.085 19.0399 31.7449L18.7066 29.7729ZM13.0304 29.7285C9.87146 29.1946 7.28882 26.8832 6.39102 23.7731L4.46948 24.3278C5.57843 28.1694 8.77336 31.0374 12.6972 31.7005L13.0304 29.7285ZM6.39102 23.7731C5.68946 21.3428 5.33333 18.8244 5.33333 16.2931H3.33333C3.33333 19.0119 3.71584 21.7171 4.46948 24.3278L6.39102 23.7731ZM19.3028 31.7005C23.2266 31.0374 26.4215 28.1694 27.5305 24.3279L25.6089 23.7731C24.7111 26.8832 22.1285 29.1946 18.9696 29.7285L19.3028 31.7005ZM9.5 7.72099C9.5 6.9859 9.66139 6.25487 9.97863 5.56855L8.16318 4.72941C7.72659 5.67394 7.5 6.69085 7.5 7.72099L9.5 7.72099ZM9.97863 5.56855C10.2961 4.88182 10.7648 4.25028 11.3641 3.71326L10.0293 2.22381C9.23571 2.93499 8.59958 3.78528 8.16318 4.72941L9.97863 5.56855ZM11.3641 3.71326C11.9635 3.17605 12.681 2.74489 13.4779 2.4491L12.7819 0.574106C11.7589 0.95384 10.8227 1.51281 10.0293 2.22381L11.3641 3.71326ZM13.4779 2.4491C14.2748 2.1533 15.1321 2 16 2V0C14.8981 0 13.8049 0.194391 12.7819 0.574106L13.4779 2.4491ZM16 2C16.8679 2 17.7252 2.1533 18.5221 2.4491L19.2181 0.574107C18.1951 0.194391 17.1019 0 16 0V2ZM18.5221 2.4491C19.319 2.74489 20.0365 3.17605 20.6359 3.71326L21.9707 2.22381C21.1773 1.51282 20.2411 0.953841 19.2181 0.574107L18.5221 2.4491ZM20.6359 3.71326C21.2352 4.25028 21.704 4.88182 22.0214 5.56855L23.8368 4.72941C23.4004 3.78528 22.7643 2.93499 21.9707 2.22381L20.6359 3.71326ZM22.0214 5.56855C22.3386 6.25487 22.5 6.98591 22.5 7.72099H24.5C24.5 6.69085 24.2734 5.67394 23.8368 4.72941L22.0214 5.56855ZM4.33333 8.72099L27.6667 8.72099V6.72099L4.33333 6.72099V8.72099Z" fill="white"/>
<path d="M12.6665 15.998V22.6647M19.3332 15.998V22.6647" stroke="white" stroke-width="2" stroke-linecap="round"/>
</svg>
