<svg width="42" height="42" viewBox="0 0 42 42" fill="none" xmlns="http://www.w3.org/2000/svg">
<path d="M1.78417 14.2232C3.23194 8.05112 8.05113 3.23194 14.2232 1.78417C18.6806 0.738609 23.3194 0.738611 27.7768 1.78417C33.9489 3.23194 38.7681 8.05113 40.2158 14.2232C41.2614 18.6806 41.2614 23.3194 40.2158 27.7768C38.7681 33.9489 33.9489 38.7681 27.7768 40.2158C23.3194 41.2614 18.6806 41.2614 14.2232 40.2158C8.05114 38.7681 3.23194 33.9489 1.78417 27.7768C0.738609 23.3194 0.738609 18.6806 1.78417 14.2232Z" stroke="#30AFFF" stroke-width="2"/>
<path d="M13.2227 21.0009L28.7782 21.0009M28.7782 21.0009L23.2227 15.4453M28.7782 21.0009L23.2227 26.5564" stroke="#30AFFF" stroke-width="2" stroke-linecap="round" stroke-linejoin="round"/>
</svg>
