<svg width="100" height="74" viewBox="0 0 100 74" fill="none" xmlns="http://www.w3.org/2000/svg">
<path d="M42.5112 0.316032C38.1957 1.23382 34.7588 3.9286 32.7475 7.95126C31.0291 11.3686 30.7948 18.1055 32.2398 22.4211C32.6889 23.749 32.8256 24.5105 32.8256 25.6822C32.8451 27.9083 33.1576 30.896 33.5481 32.2824C34.3097 35.1139 36.0867 38.1602 38.0785 40.1129L39.0744 41.0698V43.6279V46.186L37.6098 47.7872C36.8092 48.666 36.1453 49.5252 36.1453 49.6814C36.1453 50.0719 35.95 50.1696 31.0877 51.927C28.7053 52.7863 26.4011 53.665 25.952 53.8993C25.1709 54.2899 25.1123 54.2899 24.4483 53.9774L23.7649 53.6455L25.1123 52.9425C26.7135 52.1028 29.213 49.779 29.4278 48.9198C29.506 48.5488 29.4278 47.9044 29.1545 47.0647C28.5491 45.1315 28.3538 43.6474 28.139 39.0585C27.9242 34.7234 27.6899 33.2198 26.8893 31.267C25.4638 27.7521 22.1636 24.823 18.5511 23.8856C17.0475 23.4951 14.3917 23.456 12.9076 23.788C9.19742 24.6667 5.8387 27.5373 4.29604 31.2084C3.47588 33.1612 3.2025 34.9186 2.96817 39.6443C2.75337 43.706 2.40187 46.2446 1.85511 47.5334C1.67936 47.9825 1.60125 48.4902 1.67936 48.8417C1.87463 49.74 4.15934 51.927 5.85823 52.8448L7.28373 53.6455L4.95997 54.8366C2.34329 56.1645 1.36692 57.0042 0.624878 58.5664L0.117165 59.6404L0.0585823 66.0259L0 72.4309L0.488186 72.919C1.11306 73.5439 1.85511 73.5439 2.46046 72.919L2.94864 72.4504V66.4945C2.94864 62.7452 3.02675 60.3434 3.16344 59.9919C3.51494 59.035 4.15934 58.5664 6.91271 57.1799L9.6075 55.813L10.8182 56.9261C12.2632 58.2344 13.0443 58.664 14.4698 58.9179C16.6374 59.3084 18.3363 58.7226 20.3281 56.887L21.5192 55.774L22.3003 56.1254C22.8666 56.3988 23.0424 56.5746 22.9447 56.7894C21.9293 59.1717 22.0074 58.625 21.9293 65.4791C21.8512 72.3332 21.9098 72.7823 22.7885 73.1924C23.472 73.4853 23.7258 73.4658 24.2921 73.0167L24.7998 72.6066L24.8584 66.0259L24.917 59.4451L25.4833 58.4102C25.7957 57.8634 26.362 57.1604 26.7135 56.887C27.0846 56.5941 29.506 55.5982 32.1031 54.6609C34.7003 53.704 36.9654 52.8839 37.1607 52.8058C37.4146 52.7081 37.9418 53.3721 39.6407 55.8911C40.8319 57.6486 42.0426 59.2694 42.3355 59.4451C43.0775 59.9333 44.5226 60.0505 45.2451 59.6794C45.5575 59.5037 46.3777 58.8007 47.0806 58.0977C47.7641 57.3947 48.4085 56.8089 48.4866 56.8089C48.5647 56.8089 48.6428 60.3629 48.6428 64.698V72.6066L49.1506 72.9972C49.4435 73.2315 49.795 73.4072 49.9317 73.4072C50.4979 73.4072 51.1814 72.919 51.3767 72.3723C51.4938 72.0013 51.572 69.0136 51.572 64.2684V56.7503L53.0951 58.2149C54.2472 59.3279 54.794 59.738 55.3408 59.8357C56.2195 60.0114 57.1959 59.8357 57.7817 59.4256C58.0355 59.2498 59.1877 57.6681 60.3788 55.8911C62.0777 53.3525 62.605 52.7081 62.8588 52.8058C63.0346 52.8839 65.3388 53.7236 67.975 54.6804C73.1693 56.5746 73.8137 56.9456 74.6143 58.4883C75.1025 59.4256 75.1025 59.4646 75.2001 66.0454L75.2978 72.6652L75.7664 73.0362C76.3913 73.5439 77.0748 73.5049 77.6606 72.919L78.1488 72.4309L78.0902 65.7329C78.0316 59.367 78.0121 58.996 77.5825 57.9806C77.3482 57.3947 76.899 56.555 76.5671 56.1059L75.9812 55.2858L76.8405 54.9929L77.6801 54.6999L79.5743 56.5941L81.4489 58.4687V65.4596V72.4504L81.9371 72.919C82.4644 73.4658 82.7573 73.5049 83.4603 73.1924C84.339 72.8019 84.3781 72.4113 84.3781 65.2448V58.4687L86.2136 56.6332L88.0687 54.7976L91.3493 55.7154C95.3525 56.8675 96.0555 57.1995 96.6413 58.3711C97.0709 59.2108 97.0709 59.3865 97.0709 65.8501V72.4504L97.5591 72.919C98.1644 73.5439 98.9065 73.5439 99.5118 72.919L100 72.4504V65.7329C100 58.293 99.9219 57.7072 98.7698 56.184C97.7739 54.8757 96.6217 54.2313 93.8293 53.4111C92.4429 53.0206 90.8221 52.5324 90.2363 52.3566L89.1623 52.0247L89.1037 50.853L89.0451 49.6814L90.4706 48.2168C91.2517 47.4162 92.15 46.3031 92.4429 45.7368C93.263 44.2137 93.7512 42.0071 93.7512 39.8591C93.7512 38.1797 93.8098 37.8673 94.4737 36.227L95.2158 34.45L95.2744 29.6853C95.3525 24.2762 95.2939 23.9247 94.1613 23.5927C93.6731 23.456 90.9783 23.417 85.745 23.456C78.5003 23.5342 77.9731 23.5732 76.9186 23.9638C72.7397 25.5064 70.3378 29.0214 70.5526 33.2979C70.6307 34.6062 70.7479 35.1334 71.3532 36.3832C72.0367 37.8087 72.0758 38.0235 72.0758 39.8005C72.0758 43.3154 73.1107 45.9126 75.4345 48.2949C76.7428 49.6033 76.7623 49.6619 76.7623 50.6578C76.7623 51.3217 76.6647 51.7708 76.4694 51.927C76.3132 52.0637 75.3759 52.3957 74.3605 52.6886L72.5444 53.2354L70.6112 52.5129C69.5372 52.1223 67.6235 51.4193 66.3737 50.9702C64.5968 50.3258 64.05 50.0329 63.9524 49.7204C63.8742 49.4861 63.1713 48.5683 62.3902 47.7091L60.9451 46.1079V43.7255V41.3236L62.3902 39.82C65.6708 36.3832 66.9596 32.9464 67.1353 27.2248C67.1939 24.7839 67.3111 23.8856 67.604 23.1241C68.5804 20.5269 68.6194 20.1559 68.6975 10.5484C68.7952 0.901855 68.7756 0.628471 67.8578 0.198868C67.5063 0.0426483 63.9719 -0.0159378 55.6141 0.00359344C45.9871 0.00359344 43.6048 0.0621719 42.5112 0.316032ZM65.827 10.275C65.827 18.2032 65.7098 19.5701 64.9287 21.7376C64.4796 22.9483 64.4015 23.5537 64.2648 26.639C64.0695 31.4818 63.5227 33.5127 61.7262 36.0512C58.9924 39.9763 54.7745 42.1829 50.0879 42.2024C46.0652 42.2024 42.726 40.7769 39.9922 37.8673C36.9264 34.6453 35.7743 31.1889 35.7547 25.2721C35.7547 23.8075 35.6571 23.1241 35.3837 22.5187C34.5831 20.7417 34.3292 19.16 34.3097 15.8013C34.2902 13.6923 34.3878 12.2082 34.5636 11.5052C35.5399 7.4826 38.6253 4.35821 42.6284 3.30373C43.9563 2.97176 44.874 2.93271 54.9502 2.93271L65.827 2.91318V10.275ZM18.512 26.9515C20.7577 27.713 22.7495 29.5095 23.843 31.7161C24.6046 33.2783 24.9365 34.6453 25.1123 36.9886L25.249 38.9413L24.0578 37.633C21.4997 34.8601 17.3599 33.0831 13.2201 32.9659L11.8727 32.9268L10.1543 34.6843C8.70924 36.1489 8.41632 36.5394 8.41632 37.0667C8.41632 37.8673 9.02168 38.4531 9.84183 38.4531C10.3691 38.4531 10.701 38.2383 11.736 37.1838C13.1615 35.7388 13.3372 35.6997 15.7391 36.2075C18.6096 36.8128 21.695 38.8241 22.8471 40.8355C23.3353 41.6947 23.3743 41.8899 23.2181 42.6125C22.5932 45.4439 19.7227 47.9825 16.696 48.3926C12.2632 49.0175 8.45538 46.0688 7.77192 41.5189C7.55712 40.0544 7.08846 39.2342 6.44405 39.2342C6.24878 39.2342 6.0535 39.1756 6.01445 39.078C5.8387 38.7851 6.26831 34.4305 6.58075 33.4931C8.33821 28.084 13.513 25.2526 18.512 26.9515ZM92.3452 30.193L92.2671 34.0594L91.5446 35.6607C90.8807 37.1252 90.8221 37.3791 90.8221 39.0975C90.8221 40.1129 90.7245 41.4213 90.6268 41.9876C90.002 45.3658 87.3462 47.9044 83.9875 48.3926C81.0389 48.8027 78.3441 47.6115 76.5671 45.1315C75.4345 43.5693 75.0049 41.9876 75.0049 39.4881C75.0049 37.5353 74.9658 37.3596 74.2824 35.8364C73.345 33.7665 73.2084 32.2434 73.8332 30.564C74.6143 28.5136 76.5475 26.9124 78.6956 26.5414C79.1837 26.4633 82.4839 26.3852 86.0184 26.3656L92.4234 26.3461L92.3452 30.193ZM43.39 43.8232C47.5298 45.7173 52.685 45.5806 57.684 43.4326C57.9965 43.2959 58.0355 43.3936 57.977 44.6238L57.9184 45.9712L53.9738 48.666L50.0098 51.3608L46.0652 48.6464L42.1012 45.9321L42.0426 44.6433C42.0035 43.9208 42.0621 43.335 42.1597 43.335C42.2574 43.335 42.8237 43.5498 43.39 43.8232ZM8.182 48.4512C9.35364 49.5838 9.41222 49.6814 9.35364 50.4625L9.29506 51.3022L7.88908 50.6187C7.12751 50.2282 6.09256 49.5642 5.60437 49.1151L4.72564 48.3145L5.13572 46.6351L5.56532 44.9362L6.24878 46.1079C6.6198 46.7327 7.49854 47.7872 8.182 48.4512ZM26.0105 46.6742L26.4011 48.3145L25.5028 49.1542C24.9951 49.6033 23.9602 50.2867 23.1791 50.6578L21.7926 51.3217L21.734 50.5406C21.6755 49.779 21.734 49.6814 23.0033 48.4512C23.7844 47.6896 24.585 46.6742 24.917 46.0298C25.2294 45.4244 25.5224 44.9558 25.5614 44.9753C25.5809 45.0143 25.7957 45.7759 26.0105 46.6742ZM45.206 51.6341L47.7055 53.333L45.8895 55.1686C44.8936 56.1645 44.0344 56.9456 43.9563 56.9065C43.8977 56.8675 42.8432 55.3248 41.613 53.4892L39.4064 50.15L40.1484 49.3885L40.8904 48.6269L41.7887 49.2713C42.2769 49.6228 43.8196 50.6773 45.206 51.6341ZM60.5546 50.2282C60.5546 50.3453 56.4538 56.6136 56.1218 57.0042C56.0828 57.0432 55.2041 56.2426 54.1691 55.2077L52.314 53.3525L55.7704 50.9702L59.2462 48.6074L59.8906 49.3494C60.2421 49.74 60.535 50.1305 60.5546 50.2282ZM14.3331 51.3412C15.5048 51.4779 17.77 51.3217 18.5315 51.0483C18.6878 50.9897 18.7659 51.2045 18.7659 51.7904C18.7659 52.2395 18.844 52.9229 18.9611 53.294C19.1369 53.8993 19.0978 54.0165 18.6096 54.5242C16.735 56.516 15.0947 56.6332 13.0443 54.9343C12.0484 54.1336 11.9703 53.997 12.1461 53.5674C12.2437 53.294 12.3218 52.591 12.3218 51.9856C12.3218 51.0483 12.3609 50.9311 12.6538 51.0288C12.8491 51.1069 13.5911 51.2436 14.3331 51.3412ZM81.5466 51.3412C82.6011 51.517 85.0029 51.3412 85.8036 51.0288C86.0769 50.9311 86.1355 51.0288 86.1355 51.6732C86.1355 52.3566 85.9988 52.5715 84.4757 54.0751L82.8159 55.7349L81.1756 54.0751C79.6134 52.4738 79.5548 52.3762 79.6329 51.6732C79.711 51.0678 79.8086 50.9507 80.082 51.0483C80.2773 51.1069 80.9412 51.2436 81.5466 51.3412Z" fill="black"/>
</svg>
