<svg width="83" height="140" viewBox="0 0 83 140" fill="none" xmlns="http://www.w3.org/2000/svg">
<path d="M0 132.056C0 136.712 3.048 139.016 6.96 139.016C10.848 139.016 14.112 136.712 14.112 132.056V122H10.008V132.08C10.008 134.072 8.976 135.224 7.032 135.224C5.088 135.224 4.104 134.072 4.104 132.08V122H0V132.056ZM27.8659 134.96C27.7939 129.968 20.5459 131.48 20.5459 129.344C20.5459 128.696 21.0739 128.312 22.0339 128.312C23.1859 128.312 23.8819 128.912 24.0019 129.824H27.7939C27.5299 127.184 25.6099 125.264 22.1539 125.264C18.6499 125.264 16.7059 127.136 16.7059 129.416C16.7059 134.336 24.0019 132.776 24.0019 134.936C24.0019 135.536 23.4499 136.016 22.3939 136.016C21.2659 136.016 20.4259 135.392 20.3299 134.456H16.2739C16.4659 137.048 18.8659 139.04 22.4419 139.04C25.8019 139.04 27.8659 137.288 27.8659 134.96ZM36.2807 128.552C37.6487 128.552 38.8007 129.392 38.8007 130.856H33.6647C33.9047 129.368 34.9367 128.552 36.2807 128.552ZM42.6887 134.408H38.3207C37.9847 135.128 37.3367 135.704 36.1847 135.704C34.8647 135.704 33.7847 134.888 33.6407 133.136H42.9287C42.9767 132.728 43.0007 132.32 43.0007 131.936C43.0007 127.856 40.2407 125.264 36.3287 125.264C32.3447 125.264 29.5607 127.904 29.5607 132.152C29.5607 136.4 32.3927 139.04 36.3287 139.04C39.6647 139.04 42.0407 137.024 42.6887 134.408ZM49.2698 132.632C49.2698 130.328 50.3978 129.656 52.3418 129.656H53.4698V125.312C51.6698 125.312 50.2058 126.272 49.2698 127.688V125.456H45.1658V138.848H49.2698V132.632ZM60.5173 138.848H64.6213V122H60.5173V138.848ZM73.9074 122H67.5954V138.848H73.9074C79.2834 138.848 82.7394 135.416 82.7394 130.424C82.7394 125.408 79.2834 122 73.9074 122ZM71.6994 135.296V125.504H73.6434C76.7394 125.504 78.5634 127.328 78.5634 130.424C78.5634 133.52 76.7394 135.296 73.6434 135.296H71.6994Z" fill="black"/>
<path d="M36.9628 0.275166C29.0619 1.78601 22.6223 6.73957 19.3282 13.8727C17.5449 17.687 17.3963 18.6281 17.2724 26.108L17.1734 32.8449L16.5294 32.9935C13.1362 33.687 11.4025 34.3805 9.04954 35.9408C7.06811 37.2535 4.59133 39.8541 3.37771 41.8603C2.93189 42.6281 2.21362 44.2133 1.7678 45.4021L1 47.5817V68.6343V89.687L1.56966 91.5445C3.57585 97.9099 8.35604 102.541 14.7461 104.349C16.257 104.77 17.9164 104.795 41 104.795C64.0836 104.795 65.743 104.77 67.2539 104.349C73.6687 102.541 78.4241 97.9099 80.4303 91.5445L81 89.687V68.6343V47.5817L80.2322 45.4021C79.7864 44.2133 79.0681 42.6281 78.6223 41.8603C77.4087 39.8541 74.9319 37.2535 72.9505 35.9408C70.5975 34.3805 68.8638 33.687 65.4706 32.9935L64.8266 32.8449L64.7276 26.108C64.6285 20.0151 64.5542 19.173 64.0588 17.5136C62.87 13.526 61.0372 10.3557 58.2136 7.35876C53.8297 2.75195 48.2322 0.250398 41.743 0.0274884C39.8607 -0.046815 38.2508 0.0274884 36.9628 0.275166ZM46.5728 4.85721C54.1022 7.25969 59.3529 13.3031 60.5418 20.9068C60.6904 21.8727 60.8142 24.8944 60.8142 27.6189V32.5972H41H21.1858V27.5693C21.1858 22.2442 21.3839 20.3124 22.2012 17.7365C24.356 11.0244 30.2012 5.87269 37.3096 4.36186C39.291 3.94081 44.6161 4.23802 46.5728 4.85721ZM67.2786 37.5755C71.8854 39.3588 74.8328 42.3805 76.3684 46.8387L77.0371 48.8201V68.5105C77.0371 90.1576 77.0867 89.3897 75.5015 92.7829C74.3622 95.1606 71.613 97.9842 69.2353 99.1483C65.9907 100.758 67.0805 100.708 41 100.708C17.8173 100.708 17.2972 100.708 15.4892 100.188C12.9628 99.495 11.2291 98.4548 9.14861 96.399C7.26625 94.5167 5.95356 92.1885 5.3096 89.5631C4.81424 87.5817 4.81424 49.9594 5.3096 47.9532C6.64706 42.5291 11.1548 38.1699 16.6037 37.0554C17.1486 36.9563 28.418 36.882 41.6192 36.882L65.644 36.9315L67.2786 37.5755Z" fill="black"/>
<path d="M39.5136 47.8795C36.6653 48.2015 33.6189 49.96 31.7861 52.3377C28.2938 56.9445 28.6158 63.3594 32.5787 67.4956L33.7923 68.7588L32.0585 76.0157C30.8201 81.0931 30.3496 83.5204 30.4239 84.1891C30.622 85.5513 31.6127 86.9383 32.8759 87.5575C33.9161 88.0529 34.3372 88.0776 41.0245 88.0776C49.074 88.0776 49.5694 87.9538 50.783 86.1458C51.8975 84.4615 51.848 83.9167 49.9409 76.0157L48.2071 68.7588L49.396 67.5204C51.4517 65.3903 52.6158 62.443 52.6406 59.4708C52.6406 55.0374 50.0647 50.9259 46.1019 49.0436C44.5415 48.3253 41.7923 47.6318 40.752 47.7557C40.5539 47.7804 39.9842 47.83 39.5136 47.8795ZM44.1205 52.7588C49.396 55.2108 50.04 62.542 45.2598 65.8362C44.6653 66.2324 44.0957 66.8516 43.9471 67.1984C43.7737 67.6937 44.1205 69.5266 45.5818 75.6194C46.622 79.929 47.4146 83.5947 47.3403 83.7681C47.1421 84.2882 34.8573 84.2634 34.6592 83.7681C34.5848 83.5699 35.3774 79.9043 36.3929 75.6194C37.7304 70.0715 38.2257 67.6442 38.0771 67.2479C37.9533 66.9507 37.2598 66.2324 36.5415 65.6876C32.8759 62.864 32.43 57.5142 35.6251 54.3191C37.1112 52.8331 38.7706 52.1643 40.9997 52.1643C42.4362 52.1643 43.1545 52.3129 44.1205 52.7588Z" fill="black"/>
</svg>
