<svg width="68" height="90" viewBox="0 0 88 90" fill="none" xmlns="http://www.w3.org/2000/svg">
<g filter="url(#filter0_d_2661_441)">
<path d="M43.0748 0.276131C42.7236 0.467674 34.0721 5.00093 23.8404 10.3642C13.6086 15.7275 4.9731 20.2767 4.65386 20.4842C3.99941 20.8833 3.83979 21.3462 4.15904 22.0006C4.30269 22.3039 4.54213 22.4635 4.92522 22.5433L5.48389 22.6391V24.9536C5.48389 27.6353 5.67544 28.1939 6.84068 29.024L7.55897 29.5348V32.2483C7.55897 34.5628 7.60686 35.0736 7.86225 35.6323C8.21342 36.4144 9.07538 37.1487 9.90541 37.3881L10.512 37.5637V51.8179V66.0881L10.0171 66.1839C9.25096 66.3435 8.54863 66.8383 8.06976 67.5406C7.63878 68.1791 7.63878 68.211 7.5909 71.18L7.52705 74.1649L7.11203 74.3884C6.56932 74.6757 6.07449 75.2025 5.73929 75.8729C5.53178 76.2719 5.48389 76.8785 5.48389 78.6663C5.48389 79.9273 5.54774 81.0287 5.61159 81.1244C5.67544 81.2202 5.88295 81.3798 6.07449 81.4916C6.56932 81.747 81.336 81.747 81.8309 81.4916C82.0224 81.3798 82.2299 81.2202 82.2938 81.1244C82.3576 81.0287 82.4215 79.9273 82.4215 78.6663C82.4215 76.8785 82.3736 76.2719 82.1661 75.8729C81.8309 75.2025 81.336 74.6757 80.7933 74.3884L80.3464 74.149V71.4833C80.3464 70.0148 80.2666 68.5463 80.1708 68.211C79.9314 67.3491 78.9736 66.4393 78.0638 66.1998L77.3136 66.0242L77.3455 51.786L77.3934 37.5637L77.9999 37.3881C78.83 37.1487 79.6919 36.4144 80.0431 35.6323C80.2985 35.0736 80.3464 34.5628 80.3464 32.2483V29.5348L81.0647 29.024C82.2299 28.1939 82.4215 27.6512 82.4215 24.9217V22.6072H82.8844C83.2036 22.6072 83.459 22.4635 83.6825 22.1922C84.0975 21.6654 84.0975 21.3142 83.7304 20.8833C83.4271 20.5161 44.6071 0.0845871 44.0644 0.004776C43.8729 -0.027153 43.4259 0.100548 43.0748 0.276131ZM60.3298 10.891C69.2687 15.5838 76.6591 19.5105 76.7389 19.5903C76.8347 19.6701 64.3044 19.734 43.9527 19.734C23.4732 19.734 11.0706 19.6701 11.1664 19.5903C11.358 19.3828 43.6654 2.36717 43.8888 2.35121C43.9686 2.33525 51.3751 6.18213 60.3298 10.891ZM79.9633 22.3039C80.2187 22.5912 80.2825 22.9424 80.3145 24.4748C80.3783 26.5019 80.2346 27.0925 79.6121 27.3799C79.0535 27.6353 8.86787 27.6353 8.30919 27.3799C7.70263 27.1085 7.55897 26.5658 7.55897 24.6184C7.55897 23.0382 7.60686 22.7508 7.89418 22.3837L8.21342 21.9687H43.9367H79.66L79.9633 22.3039ZM22.5634 30.5084V31.3864H16.1785H9.79367V30.5084V29.6305H16.1785H22.5634V30.5084ZM35.3331 32.2962C35.3331 34.5788 35.381 35.0736 35.6364 35.6323C35.9876 36.4144 36.8495 37.1487 37.6796 37.3881L38.2861 37.5637V51.8179V66.0881L37.7913 66.1998C36.8974 66.3754 36.1791 66.95 35.7481 67.812C35.3491 68.5941 35.3331 68.7697 35.3331 71.2439V73.8457H30.0656H24.7981V71.2439C24.7981 68.7697 24.7821 68.5941 24.3831 67.812C23.9521 66.95 23.2338 66.3754 22.3399 66.1998L21.8451 66.0881V51.8179V37.5637L22.4517 37.3881C23.2817 37.1487 24.1437 36.4144 24.4948 35.6323C24.7502 35.0736 24.7981 34.5788 24.7981 32.2962V29.6305H30.0656H35.3331V32.2962ZM50.3375 30.5084V31.3864H43.9527H37.5678V30.5084V29.6305H43.9527H50.3375V30.5084ZM63.1073 32.2962C63.1073 34.5788 63.1551 35.0736 63.4105 35.6323C63.7617 36.4144 64.6237 37.1487 65.4537 37.3881L66.0603 37.5637V51.8179V66.0881L65.5654 66.1998C64.6716 66.3754 63.9533 66.95 63.5223 67.812C63.1232 68.5941 63.1073 68.7697 63.1073 71.2439V73.8457H57.8398H52.5722V71.2439C52.5722 68.7697 52.5563 68.5941 52.1572 67.812C51.7262 66.95 51.0079 66.3754 50.1141 66.1998L49.6192 66.0881V51.8179V37.5637L50.2258 37.3881C51.0558 37.1487 51.9178 36.4144 52.269 35.6323C52.5244 35.0736 52.5722 34.5788 52.5722 32.2962V29.6305H57.8398H63.1073V32.2962ZM78.1117 30.5084V31.3864H71.7268H65.342V30.5084V29.6305H71.7268H78.1117V30.5084ZM22.5634 34.1478C22.5634 34.4351 22.4676 34.8182 22.3399 34.9938C22.1165 35.2811 21.8451 35.2971 16.386 35.345C9.87349 35.3769 9.90541 35.3929 9.8256 34.2915L9.77771 33.6211H16.1626H22.5634V34.1478ZM50.3056 34.2915C50.2258 35.3769 50.2418 35.3769 43.9527 35.3769C37.6636 35.3769 37.6796 35.3769 37.5997 34.2915L37.5519 33.6211H43.9527H50.3535L50.3056 34.2915ZM78.1117 34.2436C78.1117 35.3929 78.1755 35.3769 71.7268 35.3769C65.2781 35.3769 65.342 35.3929 65.342 34.2436V33.6211H71.7268H78.1117V34.2436ZM17.1842 37.5637L19.6902 37.6595V51.8498V66.0242H16.1785H12.6669V51.8498C12.6669 44.0443 12.7147 37.6116 12.7786 37.5637C12.9063 37.4201 13.9758 37.4201 17.1842 37.5637ZM47.4324 51.77L47.4644 66.0242H43.9527H40.441V51.8498C40.441 44.0443 40.4889 37.6116 40.5527 37.5478C40.6166 37.4999 42.1809 37.4679 44.0165 37.4839L47.3845 37.5318L47.4324 51.77ZM75.2066 51.77L75.2385 66.0242H71.7268H68.2151V51.8498C68.2151 44.0443 68.263 37.6116 68.3269 37.5478C68.3907 37.4999 69.955 37.4679 71.7907 37.4839L75.1587 37.5318L75.2066 51.77ZM22.2122 68.5143C22.4676 68.6899 22.5634 68.9134 22.5634 69.3922V70.0148H16.1785H9.79367V69.3922C9.79367 68.243 9.72983 68.2589 16.1785 68.2589C21.063 68.2589 21.9089 68.2909 22.2122 68.5143ZM49.9864 68.5143C50.2418 68.6899 50.3375 68.9134 50.3375 69.3922V70.0148H43.9527H37.5678V69.4242C37.5678 68.227 37.3922 68.2589 43.8569 68.2589C48.8211 68.2589 49.6831 68.2909 49.9864 68.5143ZM77.7605 68.5143C78.0159 68.6899 78.1117 68.9134 78.1117 69.3922V70.0148H71.7268H65.342V69.3922C65.342 68.243 65.2781 68.2589 71.7268 68.2589C76.6112 68.2589 77.4572 68.2909 77.7605 68.5143ZM22.5634 73.0476V73.8457H16.1785H9.79367V73.0476V72.2495H16.1785H22.5634V73.0476ZM50.3375 73.0476V73.8457H43.9527H37.5678V73.0476V72.2495H43.9527H50.3375V73.0476ZM78.1117 73.0476V73.8457H71.7268H65.342V73.0476V72.2495H71.7268H78.1117V73.0476ZM79.5004 76.24C80.1389 76.4635 80.3464 76.9743 80.3464 78.3151V79.4324H43.9527H7.55897V78.3151C7.55897 77.0222 7.76648 76.4635 8.34112 76.256C8.94768 76.0325 78.8619 76.0325 79.5004 76.24Z" fill="black"/>
</g>
<defs>
<filter id="filter0_d_2661_441" x="0" y="0" width="88" height="89.6831" filterUnits="userSpaceOnUse" color-interpolation-filters="sRGB">
<feFlood flood-opacity="0" result="BackgroundImageFix"/>
<feColorMatrix in="SourceAlpha" type="matrix" values="0 0 0 0 0 0 0 0 0 0 0 0 0 0 0 0 0 0 127 0" result="hardAlpha"/>
<feOffset dy="4"/>
<feGaussianBlur stdDeviation="2"/>
<feComposite in2="hardAlpha" operator="out"/>
<feColorMatrix type="matrix" values="0 0 0 0 0 0 0 0 0 0 0 0 0 0 0 0 0 0 0.25 0"/>
<feBlend mode="normal" in2="BackgroundImageFix" result="effect1_dropShadow_2661_441"/>
<feBlend mode="normal" in="SourceGraphic" in2="effect1_dropShadow_2661_441" result="shape"/>
</filter>
</defs>
</svg>
