<svg width="256" height="137" viewBox="0 0 256 137" fill="none" xmlns="http://www.w3.org/2000/svg">
<path d="M97.6507 0.153269C93.2747 0.950325 89.7895 4.07603 88.4455 8.4364C87.961 9.968 87.9141 13.1093 88.3517 14.6878C88.9768 17.0008 89.5551 17.876 94.7125 24.3306L99.6042 30.457L104.496 24.3306C109.685 17.8448 110.185 17.0946 110.826 14.766C111.31 12.9999 111.31 10.4056 110.826 8.68646C109.7 4.62304 106.559 1.46607 102.605 0.387697C101.511 0.0907555 98.6978 -0.049902 97.6507 0.153269ZM101.902 2.88827C105.043 3.71658 107.637 6.40469 108.387 9.56166C108.856 11.5777 108.591 13.9533 107.684 15.8443C107.403 16.4226 105.778 18.595 103.543 21.4081C101.511 23.9399 99.7918 26.081 99.7136 26.1592C99.5261 26.3467 92.1651 17.079 91.5868 15.9381C90.9148 14.5941 90.6491 13.4219 90.6491 11.7497C90.6491 9.40537 91.243 7.65497 92.587 5.99835C93.7592 4.56052 95.4158 3.43526 97.1193 2.95078C98.3227 2.60695 100.729 2.5757 101.902 2.88827Z" fill="black"/>
<path d="M97.9955 5.37277C95.7138 6.01354 93.979 7.76394 93.3695 10.0613C92.213 14.4061 96.1201 18.6883 100.574 17.9694C104.825 17.2817 107.232 12.6869 105.403 8.79542C104.919 7.77957 103.637 6.41988 102.715 5.95103C101.246 5.20085 99.4177 4.98205 97.9955 5.37277ZM101.199 8.10777C101.996 8.46722 103.044 9.63936 103.278 10.4364C104.184 13.4371 101.434 16.1877 98.4331 15.2813C97.6361 15.0468 96.4639 13.9997 96.1045 13.2027C95.5418 11.9836 95.7763 10.2958 96.6671 9.12362C97.5735 7.95148 99.7615 7.45137 101.199 8.10777Z" fill="black"/>
<path d="M125.657 0.247072C123.344 0.747187 121.515 1.76304 119.796 3.49781C117.514 5.81084 116.592 7.95195 116.467 11.2652C116.42 12.9062 116.451 13.4532 116.733 14.5472C117.327 16.954 117.921 17.8604 123.094 24.3307C125.719 27.6283 127.923 30.3164 128.001 30.3164C128.235 30.3164 137.55 18.5481 138.113 17.5323C138.425 16.9853 138.847 16.0007 139.066 15.3443C139.425 14.2659 139.472 13.8908 139.472 11.7184C139.488 9.38977 139.472 9.24912 139.003 7.92069C138.378 6.18592 137.706 5.07629 136.472 3.73224C133.737 0.762814 129.517 -0.59687 125.657 0.247072ZM131.205 3.20087C133.408 4.07607 135.049 5.56078 136.05 7.59249C137.362 10.2493 137.362 13.2188 136.065 15.86C135.706 16.5789 134.252 18.5168 131.814 21.5644C129.783 24.0962 128.063 26.1748 128.001 26.1748C127.938 26.1748 126.219 24.0962 124.188 21.5644C120.234 16.6414 119.577 15.5943 119.171 13.672C118.155 8.82715 120.937 4.24798 125.735 2.87267C126.266 2.73201 127.095 2.6695 128.314 2.70075C129.845 2.74764 130.267 2.82578 131.205 3.20087Z" fill="black"/>
<path d="M126.311 5.40437C124.592 5.8576 123.013 7.18603 122.185 8.87391C121.263 10.7337 121.419 13.2655 122.56 15.0472C125.029 18.9387 130.702 19.0325 133.312 15.2347C134.547 13.4374 134.75 10.8431 133.812 8.90517C133.281 7.77991 132.218 6.60777 131.218 6.01388C129.843 5.21683 127.92 4.96677 126.311 5.40437ZM129.655 8.13937C131.218 8.88954 132.125 10.6868 131.781 12.3434C131.546 13.4374 130.921 14.3283 129.952 14.9222C129.28 15.3441 129.061 15.391 127.999 15.391C126.936 15.391 126.717 15.3441 126.045 14.9222C125.076 14.3283 124.451 13.4374 124.217 12.3434C123.873 10.6868 124.764 8.90517 126.326 8.13937C127.217 7.70177 128.749 7.68614 129.655 8.13937Z" fill="black"/>
<path d="M154.1 0.231407C149.661 1.23164 146.379 4.32609 145.176 8.68645C144.691 10.4056 144.691 12.9999 145.176 14.766C145.817 17.0946 146.317 17.8448 151.505 24.3306L156.397 30.457L161.289 24.3306C166.446 17.876 167.025 17.0008 167.65 14.6878C168.087 13.1093 168.04 9.968 167.556 8.4364C166.353 4.51363 163.524 1.66924 159.648 0.465836C158.21 0.0282364 155.522 -0.0967922 154.1 0.231407ZM158.679 2.88826C161.727 3.68532 164.352 6.31091 165.102 9.3116C165.415 10.5619 165.43 12.9374 165.118 14.1096C164.993 14.594 164.68 15.4224 164.415 15.9381C163.836 17.079 156.475 26.3467 156.288 26.1592C156.21 26.081 154.49 23.9399 152.459 21.4081C148.645 16.6414 148.052 15.7193 147.614 13.8908C146.489 9.10843 149.364 4.1698 154.037 2.88826C155.084 2.60695 157.585 2.60695 158.679 2.88826Z" fill="black"/>
<path d="M154.724 5.40434C149.895 6.70151 148.347 12.7966 151.989 16.2349C155.583 19.6263 161.366 17.9853 162.601 13.203C163.851 8.46753 159.475 4.13842 154.724 5.40434ZM158.412 8.35813C159.49 9.03016 160.084 10.046 160.162 11.3432C160.256 12.7029 159.912 13.5468 158.943 14.422C157.709 15.5316 156.224 15.7661 154.802 15.094C152.411 13.9688 151.801 11.0775 153.536 9.1083C154.427 8.09245 155.161 7.79551 156.537 7.84239C157.443 7.88928 157.787 7.98305 158.412 8.35813Z" fill="black"/>
<path d="M93.1483 31.0509V33.6765L92.3669 34.0985C91.9137 34.3642 91.4136 34.8018 91.1635 35.1925L90.7259 35.8489L90.679 43.7726L90.6321 51.7119L90.1164 51.8838C89.4131 52.1182 88.5223 53.0247 88.2097 53.853C87.7877 54.9626 87.9753 55.8847 89.0224 57.6507C95.9146 69.294 107.402 77.2021 120.608 79.3901C139.081 82.4533 157.382 73.8732 166.978 57.6507C168.025 55.8847 168.212 54.9626 167.79 53.853C167.478 53.0247 166.587 52.1182 165.884 51.8838L165.368 51.7119L165.321 43.757L165.274 35.8176L164.805 35.13C164.524 34.7393 164.024 34.2861 163.586 34.0673L162.852 33.6765V31.0509V28.441H161.523H160.195V31.176V33.8953L158.991 34.2704L157.772 34.6455L157.694 33.4577L157.616 32.27H156.366H155.116L155.069 33.8641L155.022 35.4582L153.662 35.8645C152.912 36.099 151.709 36.4584 150.974 36.6772C149.38 37.1617 148.989 37.3336 148.411 37.9275C147.77 38.5526 147.379 39.4904 147.379 40.4281V41.2564H143.488H139.596L139.534 39.4904C139.487 37.9431 139.44 37.6774 139.112 37.2086C138.518 36.3959 137.721 36.099 135.939 36.099H134.408V34.8487V33.5984H133.157H131.907V34.8487V36.099H130.579H129.25V33.5203V30.9415H128H126.75V33.5203V36.099H125.421H124.093V34.8487V33.5984H122.843H121.592V34.8487V36.099H120.076C118.279 36.099 117.482 36.3959 116.888 37.2086C116.56 37.6774 116.513 37.9431 116.466 39.4904L116.404 41.2564H112.512H108.621V40.4281C108.621 39.4904 108.23 38.5526 107.589 37.9275C106.995 37.3336 106.62 37.1617 104.995 36.6616C104.229 36.4428 103.026 36.0833 102.291 35.8489L100.978 35.4582L100.931 33.8641L100.884 32.27H99.6342H98.3839L98.3057 33.4421L98.2276 34.6299L97.0242 34.2548L95.8052 33.8953V31.1603V28.441H94.4767H93.1483V31.0509ZM99.8686 37.8181C105.995 39.6623 106.12 39.7092 106.12 40.725V41.2564H104.588C102.807 41.2564 101.916 41.6002 101.322 42.491C100.978 43.0068 100.963 43.1162 100.963 47.289V51.5712H97.0555H93.1483V44.1633V36.7397L93.5547 36.4272C93.7891 36.2396 94.0079 36.099 94.0704 36.099C94.1173 36.099 96.7273 36.8804 99.8686 37.8181ZM162.445 36.4272L162.852 36.7397V44.1633V51.5712H158.945H155.037V47.289C155.037 43.1162 155.022 43.0068 154.678 42.491C154.084 41.6002 153.193 41.2564 151.412 41.2564H149.88V40.725C149.88 39.7248 150.021 39.6623 156.053 37.8337C159.148 36.896 161.758 36.1146 161.851 36.1146C161.945 36.099 162.211 36.2396 162.445 36.4272ZM137.065 45.1635V51.5712H128H118.935V45.1635V38.7558H128H137.065V45.1635ZM116.435 47.7422V51.5712H109.949H103.463V47.7422V43.9132H109.949H116.435V47.7422ZM152.537 47.7422V51.5712H146.051H139.565V47.7422V43.9132H146.051H152.537V47.7422ZM113.778 55.072C113.778 55.6659 113.684 56.0254 113.481 56.2754L113.184 56.6505L108.511 56.7287C103.416 56.8224 103.276 56.8381 102.182 57.807C101.385 58.4947 100.963 59.4949 100.963 60.6358C100.963 61.1515 101.056 61.8079 101.181 62.1049C101.478 62.8238 102.307 63.7302 103.057 64.121C103.682 64.4648 103.823 64.4648 112.262 64.5429L120.842 64.6211L121.217 65.0587C121.655 65.5744 121.686 65.7932 121.358 66.4184C121.077 66.981 120.92 67.0122 118.623 67.0904C116.607 67.1529 115.903 67.3717 115.06 68.1844C113.934 69.2471 113.575 70.6224 113.997 72.1072C114.45 73.67 116.044 74.8578 117.638 74.8578C118.279 74.8578 118.935 75.4517 118.935 76.0299C118.935 76.2487 118.873 76.4206 118.81 76.4206C118.451 76.4206 114.606 75.2798 113.231 74.7796C110.871 73.9044 106.886 71.904 104.792 70.5287C99.1966 66.8403 94.4924 61.9173 91.226 56.2911C90.6321 55.2596 90.5227 54.7282 90.8353 54.4156C90.976 54.275 93.7578 54.2281 102.4 54.2281H113.778V55.072ZM134.455 55.3846C134.58 57.1194 135.267 58.2134 136.674 58.9792C137.283 59.2917 137.471 59.3074 144.332 59.3386C148.208 59.3699 151.521 59.4168 151.709 59.4637C152.084 59.5574 152.537 60.2607 152.537 60.7608C152.537 60.9327 152.396 61.2297 152.24 61.4329L151.943 61.8079L147.27 61.8861C142.972 61.9642 142.566 61.9955 141.909 62.2924C140.597 62.9019 139.565 64.5117 139.565 65.9495C139.565 66.1839 139.409 66.5121 139.221 66.684C138.877 66.9966 138.659 67.0279 135.58 67.0748C132.86 67.1216 132.188 67.1842 131.673 67.403C129.578 68.3407 128.703 70.81 129.797 72.7948C130.469 74.0451 131.782 74.8578 133.111 74.8578C133.876 74.8578 134.408 75.436 134.408 76.2487C134.408 76.7801 134.345 76.8895 134.064 76.9676C132.376 77.3583 126.343 77.499 123.702 77.2021C121.608 76.9676 121.592 76.9676 121.592 76.3737C121.592 75.5298 121.139 74.2639 120.639 73.6856C119.951 72.9042 119.248 72.5291 118.123 72.326C117.544 72.2322 116.997 72.029 116.794 71.8415C116.341 71.4351 116.325 70.6537 116.732 70.1536C117.013 69.7941 117.154 69.7785 119.201 69.7004C120.998 69.6222 121.467 69.5441 121.999 69.2784C124.655 67.8874 124.796 64.1053 122.249 62.5737C121.811 62.3081 121.17 62.0424 120.858 61.9799C120.53 61.933 116.654 61.8861 112.246 61.8861H104.229L103.854 61.4954C103.635 61.2922 103.463 60.964 103.463 60.7921C103.463 60.2607 103.901 59.5574 104.291 59.4637C104.479 59.4168 106.636 59.3699 109.089 59.3543C113.997 59.3074 114.028 59.2917 115.153 58.229C115.95 57.4945 116.294 56.6818 116.388 55.3846L116.482 54.2281H125.421H134.361L134.455 55.3846ZM165.165 54.4156C165.477 54.7282 165.368 55.2596 164.774 56.2911C161.508 61.9173 156.803 66.8403 151.208 70.5287C149.114 71.904 145.129 73.9044 142.769 74.7796C141.425 75.2798 137.549 76.4206 137.205 76.4206C137.143 76.4206 137.049 76.0924 136.986 75.6861C136.705 73.795 135.424 72.576 133.392 72.2791C132.939 72.2166 132.454 72.029 132.267 71.8415C131.766 71.4039 131.782 70.5912 132.298 70.0911C132.673 69.7004 132.689 69.7004 135.783 69.7004C139.44 69.7004 139.971 69.5753 141.05 68.497C141.753 67.7937 142.222 66.7153 142.222 65.7776C142.222 65.5432 142.363 65.1993 142.519 64.9962L142.816 64.6211L147.567 64.5429C152.068 64.4648 152.334 64.4492 152.943 64.121C153.693 63.7302 154.522 62.8238 154.819 62.1049C154.944 61.8079 155.037 61.1672 155.037 60.6671C155.037 58.8698 153.771 57.26 152.068 56.9006C151.568 56.7912 148.802 56.7287 144.488 56.7287H137.705L137.393 56.3223C137.158 56.0097 137.065 55.6815 137.065 55.072V54.2281H151.021C161.664 54.2281 165.024 54.275 165.165 54.4156Z" fill="black"/>
<path d="M95.8047 42.5856V43.9141H97.055H98.3053V42.5856V41.2572H97.055H95.8047V42.5856Z" fill="black"/>
<path d="M95.8047 47.7419V49.0703H97.055H98.3053V47.7419V46.4135H97.055H95.8047V47.7419Z" fill="black"/>
<path d="M157.695 42.5856V43.9141H158.946H160.196V42.5856V41.2572H158.946H157.695V42.5856Z" fill="black"/>
<path d="M157.695 47.7419V49.0703H158.946H160.196V47.7419V46.4135H158.946H157.695V47.7419Z" fill="black"/>
<path d="M121.594 42.5856V43.9141H122.844H124.094V42.5856V41.2572H122.844H121.594V42.5856Z" fill="black"/>
<path d="M126.75 42.5856V43.9141H128H129.251V42.5856V41.2572H128H126.75V42.5856Z" fill="black"/>
<path d="M131.906 42.5856V43.9141H133.157H134.407V42.5856V41.2572H133.157H131.906V42.5856Z" fill="black"/>
<path d="M121.594 47.7419V49.0703H122.844H124.094V47.7419V46.4135H122.844H121.594V47.7419Z" fill="black"/>
<path d="M126.75 47.7419V49.0703H128H129.251V47.7419V46.4135H128H126.75V47.7419Z" fill="black"/>
<path d="M131.906 47.7419V49.0703H133.157H134.407V47.7419V46.4135H133.157H131.906V47.7419Z" fill="black"/>
<path d="M106.121 47.7419V49.0703H107.371H108.622V47.7419V46.4135H107.371H106.121V47.7419Z" fill="black"/>
<path d="M111.277 47.7419V49.0703H112.528H113.778V47.7419V46.4135H112.528H111.277V47.7419Z" fill="black"/>
<path d="M142.223 47.7419V49.0703H143.473H144.723V47.7419V46.4135H143.473H142.223V47.7419Z" fill="black"/>
<path d="M147.379 47.7419V49.0703H148.629H149.879V47.7419V46.4135H148.629H147.379V47.7419Z" fill="black"/>
<path d="M10.776 120.868C10.776 122.068 9.984 122.692 8.616 122.692H5.592V118.972H8.568C9.936 118.972 10.776 119.668 10.776 120.868ZM10.368 114.22C10.368 115.372 9.624 115.972 8.28 115.972H5.592V112.444H8.28C9.624 112.444 10.368 113.068 10.368 114.22ZM14.928 121.42C14.928 119.5 13.656 117.772 11.688 117.364C13.32 116.884 14.544 115.564 14.544 113.524C14.544 110.86 12.504 109.156 9.072 109.156H1.488V126.004H9.336C12.888 126.004 14.928 124.204 14.928 121.42ZM21.4123 119.788C21.4123 117.484 22.5403 116.812 24.4843 116.812H25.6123V112.468C23.8123 112.468 22.3483 113.428 21.4123 114.844V112.612H17.3083V126.004H21.4123V119.788ZM26.7579 119.284C26.7579 123.508 29.3739 126.196 32.6379 126.196C34.6299 126.196 36.0459 125.284 36.7899 124.108V126.004H40.8939V112.612H36.7899V114.508C36.0699 113.332 34.6539 112.42 32.6619 112.42C29.3739 112.42 26.7579 115.06 26.7579 119.284ZM36.7899 119.308C36.7899 121.444 35.4219 122.62 33.8619 122.62C32.3259 122.62 30.9339 121.42 30.9339 119.284C30.9339 117.148 32.3259 115.996 33.8619 115.996C35.4219 115.996 36.7899 117.172 36.7899 119.308ZM53.103 126.004H57.183V118.18C57.183 114.58 55.119 112.468 52.023 112.468C50.223 112.468 48.783 113.26 47.967 114.388V112.612H43.863V126.004H47.967V118.732C47.967 116.908 48.975 115.9 50.535 115.9C52.095 115.9 53.103 116.908 53.103 118.732V126.004ZM59.2189 119.308C59.2189 123.556 62.0029 126.196 65.9389 126.196C69.2989 126.196 71.6749 124.252 72.3709 121.156H68.0029C67.6429 122.14 66.9949 122.692 65.8669 122.692C64.4029 122.692 63.3949 121.54 63.3949 119.308C63.3949 117.076 64.4029 115.924 65.8669 115.924C66.9949 115.924 67.6669 116.524 68.0029 117.46H72.3709C71.6749 114.268 69.2989 112.42 65.9389 112.42C62.0029 112.42 59.2189 115.084 59.2189 119.308ZM74.5661 126.004H78.6701V118.732C78.6701 116.908 79.6781 115.9 81.2381 115.9C82.7981 115.9 83.8061 116.908 83.8061 118.732V126.004H87.8861V118.18C87.8861 114.58 85.8461 112.468 82.7981 112.468C80.9501 112.468 79.4861 113.26 78.6701 114.412V108.244H74.5661V126.004ZM107.32 126.004H111.664L105.568 109.156H100.816L94.7199 126.004H99.0159L100.024 123.028H106.312L107.32 126.004ZM105.256 119.86H101.104L103.168 113.692L105.256 119.86ZM122.759 126.004H126.839V118.18C126.839 114.58 124.775 112.468 121.679 112.468C119.879 112.468 118.439 113.26 117.623 114.388V112.612H113.519V126.004H117.623V118.732C117.623 116.908 118.631 115.9 120.191 115.9C121.751 115.9 122.759 116.908 122.759 118.732V126.004ZM128.875 119.284C128.875 123.508 131.491 126.196 134.779 126.196C136.747 126.196 138.163 125.308 138.907 124.084V126.004H143.011V108.244H138.907V114.46C138.091 113.236 136.555 112.42 134.779 112.42C131.491 112.42 128.875 115.06 128.875 119.284ZM138.907 119.308C138.907 121.444 137.539 122.62 135.979 122.62C134.443 122.62 133.051 121.42 133.051 119.284C133.051 117.148 134.443 115.996 135.979 115.996C137.539 115.996 138.907 117.172 138.907 119.308ZM151.066 109.156V126.004H160.546V122.836H155.17V109.156H151.066ZM175.608 119.308C175.608 115.06 172.584 112.42 168.648 112.42C164.736 112.42 161.688 115.06 161.688 119.308C161.688 123.556 164.664 126.196 168.6 126.196C172.536 126.196 175.608 123.556 175.608 119.308ZM165.864 119.308C165.864 117.028 167.16 115.972 168.648 115.972C170.088 115.972 171.432 117.028 171.432 119.308C171.432 121.564 170.064 122.644 168.6 122.644C167.112 122.644 165.864 121.564 165.864 119.308ZM176.969 119.308C176.969 123.556 179.753 126.196 183.689 126.196C187.049 126.196 189.425 124.252 190.121 121.156H185.753C185.393 122.14 184.745 122.692 183.617 122.692C182.153 122.692 181.145 121.54 181.145 119.308C181.145 117.076 182.153 115.924 183.617 115.924C184.745 115.924 185.417 116.524 185.753 117.46H190.121C189.425 114.268 187.049 112.42 183.689 112.42C179.753 112.42 176.969 115.084 176.969 119.308ZM191.5 119.284C191.5 123.508 194.116 126.196 197.38 126.196C199.372 126.196 200.788 125.284 201.532 124.108V126.004H205.636V112.612H201.532V114.508C200.812 113.332 199.396 112.42 197.404 112.42C194.116 112.42 191.5 115.06 191.5 119.284ZM201.532 119.308C201.532 121.444 200.164 122.62 198.604 122.62C197.068 122.62 195.676 121.42 195.676 119.284C195.676 117.148 197.068 115.996 198.604 115.996C200.164 115.996 201.532 117.172 201.532 119.308ZM209.253 121.348C209.253 124.828 211.197 126.004 213.981 126.004H216.069V122.524H214.605C213.693 122.524 213.357 122.188 213.357 121.396V116.02H216.045V112.612H213.357V109.348H209.253V112.612H207.621V116.02H209.253V121.348ZM218.355 126.004H222.459V112.612H218.355V126.004ZM220.419 111.22C221.859 111.22 222.843 110.236 222.843 109.012C222.843 107.764 221.859 106.78 220.419 106.78C218.955 106.78 217.971 107.764 217.971 109.012C217.971 110.236 218.955 111.22 220.419 111.22ZM238.537 119.308C238.537 115.06 235.513 112.42 231.577 112.42C227.665 112.42 224.617 115.06 224.617 119.308C224.617 123.556 227.593 126.196 231.529 126.196C235.465 126.196 238.537 123.556 238.537 119.308ZM228.793 119.308C228.793 117.028 230.089 115.972 231.577 115.972C233.017 115.972 234.361 117.028 234.361 119.308C234.361 121.564 232.993 122.644 231.529 122.644C230.041 122.644 228.793 121.564 228.793 119.308ZM249.955 126.004H254.035V118.18C254.035 114.58 251.971 112.468 248.875 112.468C247.075 112.468 245.635 113.26 244.819 114.388V112.612H240.715V126.004H244.819V118.732C244.819 116.908 245.827 115.9 247.387 115.9C248.947 115.9 249.955 116.908 249.955 118.732V126.004Z" fill="black"/>
</svg>
