<svg width="60" height="81" viewBox="0 0 80 81" fill="none" xmlns="http://www.w3.org/2000/svg">
<path d="M9.65019 0.152781C5.27419 0.949837 1.78902 4.07555 0.444969 8.43591C-0.0395158 9.96751 -0.0864015 13.1089 0.351198 14.6873C0.97634 17.0004 1.5546 17.8756 6.71202 24.3302L11.6038 30.4565L16.4955 24.3302C21.6842 17.8443 22.1843 17.0941 22.8251 14.7655C23.3095 12.9995 23.3095 10.4051 22.8251 8.68597C21.6998 4.62255 18.5585 1.46558 14.6044 0.387209C13.5104 0.0902672 10.6973 -0.0503902 9.65019 0.152781ZM13.9012 2.88778C17.0425 3.71609 19.6368 6.4042 20.387 9.56117C20.8559 11.5773 20.5902 13.9528 19.6837 15.8438C19.4024 16.4221 17.777 18.5945 15.5421 21.4076C13.5104 23.9394 11.7913 26.0805 11.7132 26.1587C11.5256 26.3462 4.16456 17.0785 3.58631 15.9376C2.91428 14.5936 2.64859 13.4214 2.64859 11.7492C2.64859 9.40488 3.24248 7.65449 4.58653 5.99786C5.75868 4.56003 7.4153 3.43478 9.11881 2.95029C10.3222 2.60646 12.729 2.57521 13.9012 2.88778Z" fill="black"/>
<path d="M9.99357 5.37277C7.7118 6.01354 5.97703 7.76394 5.36752 10.0613C4.211 14.4061 8.11814 18.6883 12.5723 17.9694C16.8232 17.2817 19.23 12.6869 17.4015 8.79542C16.917 7.77957 15.6355 6.41988 14.7134 5.95103C13.2443 5.20085 11.4158 4.98205 9.99357 5.37277ZM13.1974 8.10777C13.9945 8.46722 15.0416 9.63936 15.276 10.4364C16.1825 13.4371 13.4318 16.1877 10.4312 15.2813C9.63411 15.0468 8.46197 13.9997 8.10251 13.2027C7.53988 11.9836 7.77431 10.2958 8.66514 9.12362C9.5716 7.95148 11.7596 7.45137 13.1974 8.10777Z" fill="black"/>
<path d="M37.6562 0.246584C35.3432 0.746698 33.5146 1.76255 31.7955 3.49732C29.5137 5.81035 28.5916 7.95146 28.4666 11.2647C28.4197 12.9057 28.451 13.4527 28.7323 14.5467C29.3262 16.9535 29.9201 17.86 35.0931 24.3302C37.7187 27.6278 39.9223 30.3159 40.0005 30.3159C40.2349 30.3159 49.5495 18.5476 50.1122 17.5318C50.4247 16.9848 50.8467 16.0002 51.0655 15.3438C51.4249 14.2654 51.4718 13.8903 51.4718 11.7179C51.4875 9.38929 51.4718 9.24863 51.003 7.9202C50.3778 6.18543 49.7058 5.07581 48.4712 3.73175C45.7362 0.762325 41.5164 -0.597359 37.6562 0.246584ZM43.2043 3.20038C45.408 4.07558 47.049 5.56029 48.0492 7.592C49.362 10.2489 49.362 13.2183 48.0648 15.8595C47.7054 16.5784 46.2519 18.5164 43.8138 21.5639C41.7821 24.0958 40.063 26.1744 40.0005 26.1744C39.938 26.1744 38.2188 24.0958 36.1871 21.5639C32.2331 16.6409 31.5767 15.5938 31.1703 13.6715C30.1545 8.82666 32.9364 4.24749 37.7343 2.87218C38.2657 2.73152 39.094 2.66901 40.3131 2.70027C41.8446 2.74715 42.2666 2.82529 43.2043 3.20038Z" fill="black"/>
<path d="M38.3122 5.40388C36.5931 5.85711 35.0146 7.18554 34.1863 8.87342C33.2642 10.7332 33.4205 13.265 34.5614 15.0467C37.0307 18.9382 42.7038 19.032 45.3138 15.2342C46.5484 13.437 46.7516 10.8426 45.8139 8.90468C45.2825 7.77942 44.2198 6.60728 43.2196 6.0134C41.8443 5.21634 39.9219 4.96628 38.3122 5.40388ZM41.6567 8.13888C43.2196 8.88905 44.126 10.6863 43.7822 12.343C43.5478 13.437 42.9226 14.3278 41.9537 14.9217C41.2816 15.3436 41.0628 15.3905 40.0001 15.3905C38.9373 15.3905 38.7186 15.3436 38.0465 14.9217C37.0776 14.3278 36.4524 13.437 36.218 12.343C35.8742 10.6863 36.765 8.90468 38.3278 8.13888C39.2187 7.70128 40.7503 7.68565 41.6567 8.13888Z" fill="black"/>
<path d="M66.1003 0.230919C61.6617 1.23115 58.3798 4.3256 57.1764 8.68597C56.6919 10.4051 56.6919 12.9994 57.1764 14.7655C57.8171 17.0941 58.3172 17.8443 63.5059 24.3301L68.3977 30.4565L73.2894 24.3301C78.4468 17.8756 79.0251 17.0004 79.6502 14.6873C80.0878 13.1088 80.0409 9.96751 79.5564 8.43591C78.353 4.51314 75.5243 1.66875 71.6484 0.465347C70.2106 0.0277481 67.5225 -0.0972805 66.1003 0.230919ZM70.6794 2.88777C73.727 3.68483 76.3526 6.31043 77.1028 9.31111C77.4153 10.5614 77.431 12.9369 77.1184 14.1091C76.9934 14.5936 76.6808 15.4219 76.4151 15.9376C75.8368 17.0785 68.4758 26.3462 68.2883 26.1587C68.2101 26.0805 66.491 23.9394 64.4593 21.4076C60.6459 16.6409 60.052 15.7188 59.6144 13.8903C58.4892 9.10794 61.3648 4.16932 66.0377 2.88777C67.0849 2.60646 69.5854 2.60646 70.6794 2.88777Z" fill="black"/>
<path d="M66.7242 5.40385C61.895 6.70102 60.3478 12.7962 63.9892 16.2344C67.5838 19.6258 73.3664 17.9848 74.601 13.2025C75.8513 8.46705 71.4753 4.13794 66.7242 5.40385ZM70.4126 8.35765C71.4909 9.02967 72.0848 10.0455 72.163 11.3427C72.2567 12.7024 71.9129 13.5463 70.9439 14.4215C69.7093 15.5312 68.2246 15.7656 66.8024 15.0936C64.4112 13.9683 63.8017 11.077 65.5364 9.10782C66.4273 8.09196 67.1618 7.79502 68.5371 7.8419C69.4436 7.88879 69.7874 7.98256 70.4126 8.35765Z" fill="black"/>
<path d="M5.14832 31.0505V33.676L4.36689 34.098C3.91367 34.3637 3.41355 34.8013 3.1635 35.192L2.7259 35.8484L2.67901 43.7721L2.63212 51.7114L2.11638 51.8833C1.4131 52.1177 0.52227 53.0242 0.209698 53.8525C-0.212272 54.9621 -0.0247297 55.8842 1.02238 57.6503C7.91458 69.2935 19.4016 77.2016 32.6077 79.3896C51.0806 82.4528 69.3817 73.8727 78.9776 57.6503C80.0247 55.8842 80.2123 54.9621 79.7903 53.8525C79.4777 53.0242 78.5869 52.1177 77.8836 51.8833L77.3679 51.7114L77.321 43.7565L77.2741 35.8172L76.8052 35.1295C76.5239 34.7388 76.0238 34.2856 75.5862 34.0668L74.8517 33.676V31.0505V28.4405H73.5232H72.1948V31.1755V33.8948L70.9914 34.2699L69.7724 34.645L69.6942 33.4572L69.6161 32.2695H68.3658H67.1155L67.0686 33.8636L67.0218 35.4577L65.6621 35.864C64.9119 36.0985 63.7085 36.4579 62.974 36.6767C61.3799 37.1612 60.9891 37.3331 60.4109 37.927C59.7701 38.5522 59.3794 39.4899 59.3794 40.4276V41.2559H55.4879H51.5964L51.5339 39.4899C51.487 37.9426 51.4401 37.677 51.1119 37.2081C50.518 36.3954 49.721 36.0985 47.9393 36.0985H46.4077V34.8482V33.5979H45.1574H43.9071V34.8482V36.0985H42.5787H41.2503V33.5198V30.9411H40H38.7497V33.5198V36.0985H37.4213H36.0929V34.8482V33.5979H34.8426H33.5923V34.8482V36.0985H32.0763C30.279 36.0985 29.482 36.3954 28.8881 37.2081C28.5599 37.677 28.513 37.9426 28.4661 39.4899L28.4036 41.2559H24.5121H20.6206V40.4276C20.6206 39.4899 20.2299 38.5522 19.5891 37.927C18.9952 37.3331 18.6201 37.1612 16.9948 36.6611C16.229 36.4423 15.0256 36.0828 14.291 35.8484L12.9782 35.4577L12.9313 33.8636L12.8845 32.2695H11.6342H10.3839L10.3057 33.4416L10.2276 34.6294L9.0242 34.2543L7.80518 33.8948V31.1599V28.4405H6.47675H5.14832V31.0505ZM11.8686 37.8176C17.995 39.6618 18.12 39.7087 18.12 40.7245V41.2559H16.5884C14.8068 41.2559 13.9159 41.5997 13.3221 42.4906C12.9782 43.0063 12.9626 43.1157 12.9626 47.2885V51.5707H9.05546H5.14832V44.1628V36.7392L5.55466 36.4267C5.78909 36.2391 6.00789 36.0985 6.07041 36.0985C6.11729 36.0985 8.72726 36.8799 11.8686 37.8176ZM74.4453 36.4267L74.8517 36.7392V44.1628V51.5707H70.9445H67.0374V47.2885C67.0374 43.1157 67.0218 43.0063 66.6779 42.4906C66.0841 41.5997 65.1932 41.2559 63.4116 41.2559H61.88V40.7245C61.88 39.7243 62.0206 39.6618 68.0532 37.8332C71.1477 36.8955 73.7577 36.1141 73.8514 36.1141C73.9452 36.0985 74.2109 36.2391 74.4453 36.4267ZM49.0646 45.163V51.5707H40H30.9354V45.163V38.7553H40H49.0646V45.163ZM28.4349 47.7417V51.5707H21.949H15.4632V47.7417V43.9128H21.949H28.4349V47.7417ZM64.5368 47.7417V51.5707H58.051H51.5651V47.7417V43.9128H58.051H64.5368V47.7417ZM25.778 55.0715C25.778 55.6654 25.6842 56.0249 25.4811 56.2749L25.1841 56.65L20.5112 56.7282C15.4163 56.8219 15.2756 56.8376 14.1816 57.8065C13.3846 58.4942 12.9626 59.4944 12.9626 60.6353C12.9626 61.151 13.0564 61.8074 13.1814 62.1044C13.4783 62.8233 14.3067 63.7298 15.0568 64.1205C15.682 64.4643 15.8226 64.4643 24.262 64.5424L32.8421 64.6206L33.2172 65.0582C33.6548 65.5739 33.6861 65.7927 33.3579 66.4179C33.0765 66.9805 32.9203 67.0118 30.6229 67.0899C28.6068 67.1524 27.9035 67.3712 27.0596 68.1839C25.9343 69.2466 25.5748 70.622 25.9968 72.1067C26.45 73.6695 28.0442 74.8573 29.6383 74.8573C30.279 74.8573 30.9354 75.4512 30.9354 76.0294C30.9354 76.2482 30.8729 76.4201 30.8104 76.4201C30.4509 76.4201 26.6063 75.2793 25.231 74.7791C22.8711 73.9039 18.8858 71.9035 16.7916 70.5282C11.1966 66.8398 6.49238 61.9168 3.22601 56.2906C2.63212 55.2591 2.52272 54.7277 2.8353 54.4151C2.97595 54.2745 5.75784 54.2276 14.4004 54.2276H25.778V55.0715ZM46.4546 55.3841C46.5796 57.1189 47.2673 58.2129 48.6738 58.9787C49.2834 59.2913 49.4709 59.3069 56.3318 59.3381C60.2077 59.3694 63.521 59.4163 63.7085 59.4632C64.0836 59.5569 64.5368 60.2602 64.5368 60.7603C64.5368 60.9322 64.3962 61.2292 64.2399 61.4324L63.9429 61.8074L59.27 61.8856C54.9722 61.9637 54.5658 61.995 53.9094 62.2919C52.5966 62.9014 51.5651 64.5112 51.5651 65.949C51.5651 66.1834 51.4088 66.5116 51.2213 66.6836C50.8775 66.9961 50.6587 67.0274 47.5798 67.0743C44.8605 67.1212 44.1884 67.1837 43.6727 67.4025C41.5785 68.3402 40.7033 70.8095 41.7973 72.7943C42.4693 74.0446 43.7821 74.8573 45.1105 74.8573C45.8763 74.8573 46.4077 75.4355 46.4077 76.2482C46.4077 76.7796 46.3452 76.889 46.0639 76.9671C44.376 77.3579 38.3434 77.4985 35.7021 77.2016C33.6079 76.9671 33.5923 76.9671 33.5923 76.3733C33.5923 75.5293 33.1391 74.2634 32.639 73.6851C31.9513 72.9037 31.248 72.5286 30.1227 72.3255C29.5445 72.2317 28.9975 72.0285 28.7943 71.841C28.3411 71.4346 28.3255 70.6532 28.7318 70.1531C29.0131 69.7936 29.1538 69.778 31.2011 69.6999C32.9984 69.6217 33.4673 69.5436 33.9986 69.2779C36.6555 67.887 36.7961 64.1048 34.2487 62.5732C33.8111 62.3076 33.1703 62.0419 32.8577 61.9794C32.5295 61.9325 28.6537 61.8856 24.2464 61.8856H16.229L15.8539 61.4949C15.6351 61.2917 15.4632 60.9635 15.4632 60.7916C15.4632 60.2602 15.9008 59.5569 16.2915 59.4632C16.479 59.4163 18.6358 59.3694 21.0894 59.3538C25.9968 59.3069 26.0281 59.2913 27.1533 58.2285C27.9504 57.494 28.2942 56.6813 28.388 55.3841L28.4818 54.2276H37.4213H46.3608L46.4546 55.3841ZM77.1647 54.4151C77.4773 54.7277 77.3679 55.2591 76.774 56.2906C73.5076 61.9168 68.8034 66.8398 63.2084 70.5282C61.1142 71.9035 57.1289 73.9039 54.769 74.7791C53.4249 75.2793 49.549 76.4201 49.2052 76.4201C49.1427 76.4201 49.0489 76.0919 48.9864 75.6856C48.7051 73.7945 47.4236 72.5755 45.3918 72.2786C44.9386 72.2161 44.4541 72.0285 44.2666 71.841C43.7665 71.4034 43.7821 70.5907 44.2979 70.0906C44.6729 69.6999 44.6886 69.6999 47.783 69.6999C51.4401 69.6999 51.9715 69.5748 53.0498 68.4965C53.7531 67.7932 54.222 66.7148 54.222 65.7771C54.222 65.5427 54.3626 65.1988 54.5189 64.9957L54.8159 64.6206L59.5669 64.5424C64.068 64.4643 64.3337 64.4487 64.9432 64.1205C65.6933 63.7298 66.5217 62.8233 66.8186 62.1044C66.9436 61.8074 67.0374 61.1667 67.0374 60.6666C67.0374 58.8693 65.7715 57.2595 64.068 56.9001C63.5679 56.7907 60.8016 56.7282 56.4881 56.7282H49.7053L49.3928 56.3218C49.1583 56.0093 49.0646 55.6811 49.0646 55.0715V54.2276H63.0209C73.6639 54.2276 77.024 54.2745 77.1647 54.4151Z" fill="black"/>
<path d="M7.80518 42.5847V43.9131H9.05546H10.3057V42.5847V41.2562H9.05546H7.80518V42.5847Z" fill="black"/>
<path d="M7.80518 47.7419V49.0703H9.05546H10.3057V47.7419V46.4135H9.05546H7.80518V47.7419Z" fill="black"/>
<path d="M69.6938 42.5847V43.9131H70.9441H72.1944V42.5847V41.2562H70.9441H69.6938V42.5847Z" fill="black"/>
<path d="M69.6938 47.7419V49.0703H70.9441H72.1944V47.7419V46.4135H70.9441H69.6938V47.7419Z" fill="black"/>
<path d="M33.5918 42.5847V43.9131H34.8421H36.0924V42.5847V41.2562H34.8421H33.5918V42.5847Z" fill="black"/>
<path d="M38.7495 42.5847V43.9131H39.9998H41.2501V42.5847V41.2562H39.9998H38.7495V42.5847Z" fill="black"/>
<path d="M43.9067 42.5847V43.9131H45.157H46.4073V42.5847V41.2562H45.157H43.9067V42.5847Z" fill="black"/>
<path d="M33.5918 47.7419V49.0703H34.8421H36.0924V47.7419V46.4135H34.8421H33.5918V47.7419Z" fill="black"/>
<path d="M38.7495 47.7419V49.0703H39.9998H41.2501V47.7419V46.4135H39.9998H38.7495V47.7419Z" fill="black"/>
<path d="M43.9067 47.7419V49.0703H45.157H46.4073V47.7419V46.4135H45.157H43.9067V47.7419Z" fill="black"/>
<path d="M18.1196 47.7419V49.0703H19.3699H20.6202V47.7419V46.4135H19.3699H18.1196V47.7419Z" fill="black"/>
<path d="M23.2769 47.7419V49.0703H24.5271H25.7774V47.7419V46.4135H24.5271H23.2769V47.7419Z" fill="black"/>
<path d="M54.2217 47.7419V49.0703H55.472H56.7222V47.7419V46.4135H55.472H54.2217V47.7419Z" fill="black"/>
<path d="M59.3794 47.7419V49.0703H60.6297H61.88V47.7419V46.4135H60.6297H59.3794V47.7419Z" fill="black"/>
</svg>
