<svg width="40" height="40" viewBox="0 0 40 40" fill="none" xmlns="http://www.w3.org/2000/svg">
<path d="M5.89919 0.0949192C4.44277 0.261618 3.08286 0.937187 2.00371 2.00757C0.889457 3.12181 0.266531 4.42031 0.0822854 6.01711C-0.0229978 6.99975 -0.0317714 11.6234 0.0822854 12.6763C0.248984 14.2994 0.845589 15.5277 2.05635 16.7209C2.74069 17.4052 2.98635 17.5895 3.68824 17.9229C5.24117 18.6774 4.8639 18.6423 11.7073 18.6423C17.4891 18.6423 17.7699 18.6336 18.0068 18.4756C18.1384 18.3879 18.3402 18.1861 18.4454 18.0369L18.6385 17.765V11.7112C18.6385 4.86776 18.6736 5.24503 17.919 3.6921C17.5856 2.98144 17.4102 2.74455 16.717 2.06898C15.4887 0.840677 14.3394 0.279165 12.6461 0.0861454C11.7424 -0.0191364 6.80287 -0.0103645 5.89919 0.0949192ZM13.1637 2.8937C14.2604 3.2271 15.0676 3.92021 15.594 4.99059L15.9186 5.64861L15.945 10.8075L15.9713 15.9751L10.8036 15.9488L5.64475 15.9225L4.98673 15.5979C3.91635 15.0715 3.22324 14.2643 2.88984 13.1676C2.73191 12.6587 2.71437 12.3429 2.71437 9.3423C2.71437 5.76267 2.74069 5.52578 3.2671 4.6221C3.52154 4.19219 4.33748 3.40257 4.76739 3.18323C5.59211 2.75332 5.81145 2.727 9.30334 2.727C12.3478 2.71823 12.6549 2.73578 13.1637 2.8937Z" fill="black"/>
<path d="M27.2193 0.086401C25.0259 0.323288 23.0431 1.70952 22.0516 3.72745C21.3322 5.20141 21.3585 4.87679 21.3585 11.729C21.3585 17.7213 21.3585 17.8003 21.5428 18.0372C21.6393 18.1688 21.8323 18.3618 21.9639 18.4583C22.2008 18.6426 22.2797 18.6426 28.2721 18.6426H34.3435L35.0366 18.4408C36.2298 18.0986 37.0457 17.6073 37.9406 16.7124C39.1602 15.4929 39.7217 14.3435 39.9147 12.6502C40.0288 11.65 40.0288 7.01755 39.9147 6.01736C39.8006 5.04349 39.4848 4.08716 39.0198 3.28877C38.5899 2.55178 37.4405 1.39367 36.7299 0.972534C36.0192 0.551401 34.905 0.191685 33.9925 0.086401C33.0976 -0.0101089 28.1844 -0.0101089 27.2193 0.086401ZM34.3961 2.85886C35.098 3.06943 35.5016 3.29754 36.0368 3.79764C36.5895 4.33283 36.8878 4.8066 37.1159 5.53481C37.2651 6.01736 37.2826 6.38585 37.2826 9.34256C37.2826 12.3431 37.2651 12.659 37.1071 13.1678C36.7737 14.2645 36.0806 15.0717 35.0103 15.5981L34.3522 15.9228L29.1934 15.9491L24.0257 15.9754L24.052 10.8077L24.0783 5.64887L24.403 4.99085C24.9206 3.93801 25.7278 3.23613 26.8245 2.88518C27.2719 2.7448 27.6843 2.72726 30.6234 2.72726C33.4047 2.71848 33.9925 2.7448 34.3961 2.85886Z" fill="black"/>
<path d="M5.68862 21.4154C4.31116 21.6172 3.11795 22.2313 2.04757 23.2929C0.854363 24.4774 0.248984 25.7057 0.0822854 27.3288C-0.0317714 28.3816 -0.0229978 33.0053 0.0822854 33.988C0.266531 35.5848 0.889457 36.8833 2.00371 37.9975C3.15305 39.1381 4.43399 39.7435 6.14485 39.9277C6.72391 39.9891 8.11891 40.0067 10.0316 39.9803C12.6549 39.9452 13.1023 39.9189 13.6463 39.761C15.9888 39.1118 17.7611 37.3658 18.4367 35.0408L18.6385 34.3477V28.2939V22.2401L18.4454 21.9681C18.3402 21.819 18.1384 21.6172 18.0068 21.5294C17.7699 21.3715 17.4803 21.3628 11.9705 21.354C8.7857 21.3452 5.9606 21.3715 5.68862 21.4154ZM15.945 29.1976L15.9186 34.3565L15.594 35.0145C15.0676 36.0849 14.2604 36.778 13.1637 37.1114C12.6549 37.2693 12.339 37.2868 9.33844 37.2868C6.37296 37.2868 6.01324 37.2693 5.53069 37.1201C4.57437 36.8218 3.58295 36.0234 3.17059 35.2163C2.74069 34.3652 2.71437 34.1283 2.71437 30.654C2.71437 27.6622 2.73191 27.3464 2.88984 26.8375C3.27588 25.5741 4.18833 24.6441 5.47805 24.1966C5.87287 24.0562 6.40806 24.0475 10.944 24.0387H15.9713L15.945 29.1976Z" fill="black"/>
<path d="M22.1482 21.4417C21.7885 21.5996 21.42 22.0471 21.3586 22.398C21.3323 22.5559 21.3147 25.3196 21.3323 28.5571C21.3674 34.374 21.3674 34.4442 21.5691 35.0934C21.9289 36.2954 22.4026 37.0675 23.3326 37.9887C24.2802 38.9363 24.9294 39.3311 26.1841 39.7083C26.9561 39.9365 27.0263 39.9452 29.9655 39.9891C33.3784 40.033 34.3962 39.954 35.5016 39.5767C36.5194 39.2258 37.116 38.8485 37.9495 38.0326C39.1339 36.8657 39.7305 35.5935 39.9235 33.8563C39.9849 33.2861 40.0025 31.8735 39.9762 29.9696C39.9323 26.6444 39.8972 26.4163 39.3094 25.1354C38.4232 23.2315 36.6334 21.8541 34.5014 21.4417C33.5714 21.2662 22.5518 21.2662 22.1482 21.4417ZM35.0103 24.4072C36.0807 24.9336 36.7738 25.7408 37.1072 26.8375C37.2651 27.3463 37.2827 27.6622 37.2827 30.654C37.2827 34.1283 37.2564 34.3652 36.8264 35.2163C36.5896 35.6813 35.8438 36.4621 35.37 36.7341C34.4839 37.2605 34.2295 37.2868 30.6586 37.2868C27.658 37.2868 27.3422 37.2693 26.8333 37.1114C25.7366 36.778 24.9294 36.0848 24.403 35.0145L24.0784 34.3564L24.0521 29.1976L24.0258 24.0299L29.1934 24.0562L34.3523 24.0825L35.0103 24.4072Z" fill="black"/>
</svg>
