<svg width="40" height="40" viewBox="0 0 40 40" fill="none" xmlns="http://www.w3.org/2000/svg">
<path d="M1.73516 26.1033L2.5006 25.9237L1.73516 26.1033ZM1.73516 13.3967L2.5006 13.5763L1.73516 13.3967ZM37.7648 13.3967L36.9994 13.5763L37.7648 13.3967ZM37.7648 26.1033L36.9994 25.9237L37.7648 26.1033ZM26.1033 37.7648L26.2828 38.5303L26.1033 37.7648ZM13.3967 37.7648L13.5763 36.9994L13.3967 37.7648ZM13.3967 1.73516L13.5763 2.5006L13.3967 1.73516ZM26.1033 1.73516L26.2828 0.969723L26.1033 1.73516ZM2.5006 25.9237C1.54808 21.863 1.54808 17.637 2.5006 13.5763L0.969726 13.2172C-0.0381913 17.5141 -0.0381914 21.9859 0.969726 26.2828L2.5006 25.9237ZM36.9994 13.5763C37.9519 17.637 37.9519 21.863 36.9994 25.9237L38.5303 26.2828C39.5382 21.9859 39.5382 17.5141 38.5303 13.2172L36.9994 13.5763ZM25.9237 36.9994C21.863 37.9519 17.637 37.9519 13.5763 36.9994L13.2172 38.5303C17.5141 39.5382 21.9859 39.5382 26.2828 38.5303L25.9237 36.9994ZM13.5763 2.5006C17.637 1.54808 21.863 1.54808 25.9237 2.5006L26.2828 0.969723C21.9859 -0.0381911 17.5141 -0.0381902 13.2172 0.969724L13.5763 2.5006ZM13.5763 36.9994C8.0807 35.7103 3.78969 31.4193 2.5006 25.9237L0.969726 26.2828C2.3952 32.3598 7.14018 37.1048 13.2172 38.5303L13.5763 36.9994ZM26.2828 38.5303C32.3598 37.1048 37.1048 32.3598 38.5303 26.2828L36.9994 25.9237C35.7103 31.4193 31.4193 35.7103 25.9237 36.9994L26.2828 38.5303ZM25.9237 2.5006C31.4193 3.78969 35.7103 8.08069 36.9994 13.5763L38.5303 13.2172C37.1048 7.14018 32.3598 2.3952 26.2828 0.969723L25.9237 2.5006ZM13.2172 0.969724C7.14018 2.3952 2.3952 7.14017 0.969726 13.2172L2.5006 13.5763C3.78969 8.08069 8.08069 3.78969 13.5763 2.5006L13.2172 0.969724Z" fill="#ED553B"/>
<path d="M23.9885 16.6231C24.2956 16.316 24.2956 15.8182 23.9885 15.5112C23.6815 15.2042 23.1837 15.2042 22.8767 15.5112L23.9885 16.6231ZM15.511 22.8769C15.2039 23.1839 15.2039 23.6817 15.511 23.9888C15.818 24.2958 16.3158 24.2958 16.6228 23.9888L15.511 22.8769ZM22.8767 23.9888C23.1837 24.2958 23.6815 24.2958 23.9885 23.9888C24.2956 23.6817 24.2956 23.1839 23.9885 22.8769L22.8767 23.9888ZM16.6228 15.5112C16.3158 15.2042 15.818 15.2042 15.511 15.5112C15.2039 15.8182 15.2039 16.316 15.511 16.6231L16.6228 15.5112ZM22.8767 15.5112L15.511 22.8769L16.6228 23.9888L23.9885 16.6231L22.8767 15.5112ZM23.9885 22.8769L16.6228 15.5112L15.511 16.6231L22.8767 23.9888L23.9885 22.8769Z" fill="#ED553B"/>
</svg>
