<svg width="22" height="21" viewBox="0 0 22 21" fill="none" xmlns="http://www.w3.org/2000/svg">
<path d="M1.404 13.738L0.640961 13.9274L1.404 13.738ZM1.404 7.13114L0.640961 6.94167L1.404 7.13114ZM20.5134 7.13115L19.7503 7.32062L20.5134 7.13115ZM20.5134 13.7379L21.2764 13.9274L20.5134 13.7379ZM14.2247 19.5116L14.0546 18.744H14.0546L14.2247 19.5116ZM7.69269 19.5116L7.5226 20.2792H7.5226L7.69269 19.5116ZM7.69269 1.35751L7.86278 2.12511L7.69269 1.35751ZM14.2247 1.35752L14.0546 2.12511L14.0546 2.12511L14.2247 1.35752ZM7.2169 19.4061L7.38699 18.6386H7.38699L7.2169 19.4061ZM14.7005 19.4062L14.8706 20.1737H14.8706L14.7005 19.4062ZM14.7005 1.46294L14.8706 0.695347H14.8706L14.7005 1.46294ZM7.2169 1.46294L7.04682 0.695348V0.695348L7.2169 1.46294ZM7.38699 2.23054L7.86278 2.12511L7.5226 0.589921L7.04682 0.695348L7.38699 2.23054ZM14.0546 2.12511L14.5304 2.23053L14.8706 0.695347L14.3948 0.589922L14.0546 2.12511ZM14.5304 18.6386L14.0546 18.744L14.3948 20.2792L14.8706 20.1737L14.5304 18.6386ZM7.86278 18.744L7.38699 18.6386L7.04681 20.1737L7.5226 20.2792L7.86278 18.744ZM2.16704 13.5485C1.65927 11.5036 1.65927 9.36551 2.16704 7.32061L0.640961 6.94167C0.0713971 9.23541 0.0713967 11.6337 0.640961 13.9274L2.16704 13.5485ZM19.7503 7.32062C20.2581 9.36551 20.2581 11.5036 19.7503 13.5485L21.2764 13.9274C21.846 11.6337 21.846 9.23542 21.2764 6.94168L19.7503 7.32062ZM14.0546 18.744C12.0154 19.1958 9.902 19.1958 7.86278 18.744L7.5226 20.2792C9.78589 20.7807 12.1315 20.7807 14.3948 20.2792L14.0546 18.744ZM7.86278 2.12511C9.902 1.67325 12.0154 1.67325 14.0546 2.12511L14.3948 0.589922C12.1315 0.0884102 9.78589 0.0884097 7.5226 0.589921L7.86278 2.12511ZM7.38699 18.6386C4.82232 18.0703 2.80028 16.0986 2.16704 13.5485L0.640961 13.9274C1.41799 17.0567 3.8993 19.4763 7.04681 20.1737L7.38699 18.6386ZM14.8706 20.1737C18.0181 19.4763 20.4994 17.0567 21.2764 13.9274L19.7503 13.5485C19.1171 16.0986 17.0951 18.0703 14.5304 18.6386L14.8706 20.1737ZM14.5304 2.23053C17.0951 2.79883 19.1171 4.77046 19.7503 7.32062L21.2764 6.94168C20.4994 3.81242 18.0181 1.39279 14.8706 0.695347L14.5304 2.23053ZM7.04682 0.695348C3.8993 1.39279 1.41799 3.81241 0.640961 6.94167L2.16704 7.32061C2.80028 4.77046 4.82232 2.79883 7.38699 2.23054L7.04682 0.695348Z" fill="#ED553B"/>
<path d="M7 10H15.3863" stroke="#ED553B" stroke-width="1.57242" stroke-linecap="round"/>
</svg>
