<svg width="21" height="21" viewBox="0 0 21 21" fill="none" xmlns="http://www.w3.org/2000/svg">
<path d="M1 4.2273C0.447715 4.2273 0 4.67501 0 5.2273C0 5.77958 0.447715 6.2273 1 6.2273V4.2273ZM19.8691 6.2273C20.4214 6.2273 20.8691 5.77958 20.8691 5.2273C20.8691 4.67501 20.4214 4.2273 19.8691 4.2273V6.2273ZM3.09657 5.2273L3.09657 4.2273H2.09657V5.2273H3.09657ZM17.7725 5.2273H18.7725V4.2273H17.7725V5.2273ZM17.0826 15.4981L18.0433 15.7754L17.0826 15.4981ZM12.2417 19.7175L12.4084 20.7035H12.4084L12.2417 19.7175ZM8.62732 19.7175L8.79394 18.7314H8.79393L8.62732 19.7175ZM8.46196 19.6895L8.29533 20.6755H8.29534L8.46196 19.6895ZM3.78649 15.498L2.82572 15.7754L3.78649 15.498ZM12.4071 19.6895L12.2405 18.7035L12.4071 19.6895ZM6.07635 3.60958L6.98408 4.02915L6.07635 3.60958ZM7.09893 2.23815L6.43156 1.49342V1.49342L7.09893 2.23815ZM8.62932 1.32178L8.97731 2.25928V2.25928L8.62932 1.32178ZM12.2398 1.32178L12.5878 0.384286L12.5878 0.384286L12.2398 1.32178ZM14.7927 3.60958L15.7005 3.19001V3.19001L14.7927 3.60958ZM1 6.2273L19.8691 6.2273V4.2273L1 4.2273V6.2273ZM12.2405 18.7035L12.0751 18.7314L12.4084 20.7035L12.5738 20.6755L12.2405 18.7035ZM8.79393 18.7314L8.62858 18.7035L8.29534 20.6755L8.4607 20.7035L8.79393 18.7314ZM16.7725 5.2273V10.6189L18.7725 10.6189V5.2273H16.7725ZM4.09657 10.6189V5.2273H2.09657L2.09657 10.6189H4.09657ZM16.7725 10.6189C16.7725 12.1762 16.5534 13.7256 16.1218 15.2207L18.0433 15.7754C18.527 14.0999 18.7725 12.3637 18.7725 10.6189L16.7725 10.6189ZM12.0751 18.7314C10.989 18.915 9.8801 18.915 8.79394 18.7314L8.46069 20.7035C9.76745 20.9243 11.1016 20.9243 12.4084 20.7035L12.0751 18.7314ZM8.62858 18.7035C6.78359 18.3917 5.27278 17.0412 4.74726 15.2207L2.82572 15.7754C3.56239 18.3273 5.6855 20.2345 8.29533 20.6755L8.62858 18.7035ZM4.74726 15.2207C4.31566 13.7256 4.09657 12.1762 4.09657 10.6189H2.09657C2.09657 12.3638 2.34204 14.0999 2.82572 15.7754L4.74726 15.2207ZM12.5738 20.6755C15.1836 20.2345 17.3067 18.3273 18.0433 15.7754L16.1218 15.2207C15.5963 17.0412 14.0855 18.3917 12.2405 18.7035L12.5738 20.6755ZM6.71727 5.2273C6.71727 4.81969 6.80669 4.41293 6.98408 4.02915L5.16863 3.19001C4.87189 3.832 4.71727 4.52463 4.71727 5.2273H6.71727ZM6.98408 4.02915C7.16166 3.64497 7.42544 3.28833 7.7663 2.98287L6.43156 1.49342C5.89635 1.97304 5.46518 2.54844 5.16863 3.19001L6.98408 4.02915ZM7.7663 2.98287C8.10738 2.67722 8.51806 2.42975 8.97731 2.25928L8.28133 0.384285C7.59593 0.6387 6.96656 1.01399 6.43156 1.49342L7.7663 2.98287ZM8.97731 2.25928C9.43661 2.08879 9.93207 2 10.4345 2V0C9.69806 0 8.96669 0.12989 8.28133 0.384286L8.97731 2.25928ZM10.4345 2C10.937 2 11.4325 2.0888 11.8918 2.25928L12.5878 0.384286C11.9024 0.12989 11.171 0 10.4345 0V2ZM11.8918 2.25928C12.351 2.42975 12.7617 2.67722 13.1028 2.98287L14.4375 1.49342C13.9025 1.01399 13.2732 0.638701 12.5878 0.384286L11.8918 2.25928ZM13.1028 2.98287C13.4437 3.28833 13.7074 3.64497 13.885 4.02915L15.7005 3.19001C15.4039 2.54844 14.9727 1.97304 14.4375 1.49342L13.1028 2.98287ZM13.885 4.02915C14.0624 4.41293 14.1518 4.81969 14.1518 5.2273H16.1518C16.1518 4.52464 15.9972 3.832 15.7005 3.19001L13.885 4.02915ZM3.09657 6.2273L17.7725 6.2273V4.2273L3.09657 4.2273L3.09657 6.2273Z" fill="red"/>
<path d="M8.33789 10.4346V14.6277M12.531 10.4346V14.6277" stroke="red" stroke-width="2" stroke-linecap="round"/>
</svg>

