<svg width="67" height="67" viewBox="0 0 67 67" fill="none" xmlns="http://www.w3.org/2000/svg">
<path d="M3 14.166C1.61929 14.166 0.5 15.2853 0.5 16.666C0.5 18.0467 1.61929 19.166 3 19.166L3 14.166ZM64 19.166C65.3807 19.166 66.5 18.0467 66.5 16.666C66.5 15.2853 65.3807 14.166 64 14.166V19.166ZM9.77778 16.666V14.166H7.27778V16.666H9.77778ZM57.2222 16.666H59.7222V14.166H57.2222V16.666ZM54.9917 49.8694L57.3937 50.5627L54.9917 49.8694ZM39.3423 63.5098L39.7589 65.9748L39.3423 63.5098ZM27.6576 63.5098L28.0741 61.0447H28.0741L27.6576 63.5098ZM27.123 63.4194L26.7065 65.8845L26.7065 65.8845L27.123 63.4194ZM12.0082 49.8693L9.60625 50.5626L12.0082 49.8693ZM39.8769 63.4194L39.4604 60.9544H39.4604L39.8769 63.4194ZM19.4108 11.4363L21.6801 12.4852L19.4108 11.4363ZM22.7166 7.00268L21.0482 5.14087V5.14087L22.7166 7.00268ZM27.6641 4.04026L28.5341 6.38401L27.6641 4.04026ZM39.3359 4.04026L40.2059 1.69652V1.69652L39.3359 4.04026ZM47.5892 11.4363L49.8585 10.3873V10.3873L47.5892 11.4363ZM3 19.166L64 19.166V14.166L3 14.166L3 19.166ZM39.4604 60.9544L38.9257 61.0447L39.7589 65.9748L40.2935 65.8845L39.4604 60.9544ZM28.0741 61.0447L27.5396 60.9544L26.7065 65.8845L27.241 65.9748L28.0741 61.0447ZM54.7222 16.666V34.0958H59.7222V16.666H54.7222ZM12.2778 34.0959L12.2778 16.666H7.27778L7.27778 34.0959H12.2778ZM54.7222 34.0958C54.7222 39.1991 54.0042 44.2764 52.5898 49.176L57.3937 50.5627C58.9383 45.2121 59.7222 39.668 59.7222 34.0958H54.7222ZM38.9257 61.0447C35.3336 61.6518 31.6663 61.6518 28.0741 61.0447L27.241 65.9748C31.3847 66.6751 35.6152 66.6751 39.7589 65.9748L38.9257 61.0447ZM27.5396 60.9544C21.2949 59.8991 16.1864 55.3291 14.4101 49.1759L9.60625 50.5626C11.9104 58.5444 18.5496 64.5061 26.7065 65.8845L27.5396 60.9544ZM14.4101 49.1759C12.9957 44.2764 12.2778 39.1992 12.2778 34.0959H7.27778C7.27778 39.668 8.06169 45.2121 9.60625 50.5626L14.4101 49.1759ZM40.2935 65.8845C48.4503 64.5061 55.0895 58.5445 57.3937 50.5627L52.5898 49.176C50.8135 55.3291 45.7051 59.8991 39.4604 60.9544L40.2935 65.8845ZM20.75 16.666C20.75 15.2402 21.0629 13.8205 21.6801 12.4852L17.1415 10.3873C16.226 12.3681 15.75 14.5025 15.75 16.666H20.75ZM21.6801 12.4852C22.2978 11.1489 23.2119 9.9158 24.3851 8.86449L21.0482 5.14087C19.3892 6.62758 18.0566 8.40755 17.1415 10.3873L21.6801 12.4852ZM24.3851 8.86449C25.5587 7.81271 26.9665 6.96586 28.5341 6.38401L26.7941 1.69652C24.6612 2.48823 22.7067 3.65464 21.0482 5.14087L24.3851 8.86449ZM28.5341 6.38401C30.1017 5.80211 31.7898 5.5 33.5 5.5V0.5C31.2048 0.5 28.9269 0.90485 26.7941 1.69652L28.5341 6.38401ZM33.5 5.5C35.2102 5.5 36.8983 5.80211 38.466 6.38401L40.2059 1.69652C38.0731 0.904851 35.7952 0.5 33.5 0.5V5.5ZM38.466 6.38401C40.0335 6.96586 41.4413 7.81271 42.6149 8.8645L45.9518 5.14087C44.2933 3.65464 42.3388 2.48823 40.2059 1.69652L38.466 6.38401ZM42.6149 8.8645C43.7881 9.9158 44.7022 11.1489 45.3199 12.4852L49.8585 10.3873C48.9434 8.40755 47.6108 6.62758 45.9518 5.14087L42.6149 8.8645ZM45.3199 12.4852C45.937 13.8205 46.25 15.2402 46.25 16.666H51.25C51.25 14.5026 50.774 12.3681 49.8585 10.3873L45.3199 12.4852ZM9.77778 19.166L57.2222 19.166V14.166L9.77778 14.166V19.166Z" fill="#ED553B"/>
<path d="M26.7217 33.4993V47.0548M40.2772 33.4993V47.0548" stroke="#ED553B" stroke-width="5" stroke-linecap="round"/>
</svg>
