<svg width="21" height="21" viewBox="0 0 21 21" fill="none" xmlns="http://www.w3.org/2000/svg">
<path d="M19.2867 5.07634C17.5397 5.65868 15.2103 3.32934 15.7927 1.58233M15.6514 1.72363L11.8876 5.48741C10.2513 7.12368 9.09051 9.17388 8.52928 11.4188L8.34741 12.1463C8.29075 12.3729 8.49606 12.5783 8.72273 12.5216L9.45019 12.3397C11.6951 11.7785 13.7453 10.6177 15.3816 8.98142L19.1454 5.21764C19.6087 4.75431 19.869 4.12589 19.869 3.47064C19.869 2.10614 18.7629 1 17.3984 1C16.7431 1 16.1147 1.2603 15.6514 1.72363Z" stroke="#222628" stroke-width="1.57242"/>
<path d="M10.4345 1C9.36181 1 8.28907 1.12331 7.23774 1.36991C4.32621 2.05287 2.05287 4.32621 1.36992 7.23773C0.876695 9.34041 0.876695 11.5287 1.36992 13.6314C2.05287 16.5429 4.32621 18.8162 7.23774 19.4992C9.34041 19.9924 11.5287 19.9924 13.6314 19.4992C16.5429 18.8162 18.8162 16.5429 19.4992 13.6314C19.7458 12.58 19.8691 11.5073 19.8691 10.4345" stroke="#222628" stroke-width="1.57242" stroke-linecap="round"/>
</svg>
