<svg width="15" height="18" viewBox="0 0 15 18" fill="none" xmlns="http://www.w3.org/2000/svg">
<path d="M1 15.5924C1 13.4069 2.53729 11.5452 4.62652 11.2008L4.81471 11.1698C6.48765 10.8939 8.19235 10.8939 9.86529 11.1698L10.0535 11.2008C12.1427 11.5452 13.68 13.4069 13.68 15.5924C13.68 16.5371 12.9387 17.3029 12.0242 17.3029H2.65576C1.74131 17.3029 1 16.5371 1 15.5924Z" stroke="black"/>
<path d="M11.0385 4.56625C11.0385 6.53584 9.38271 8.1325 7.34018 8.1325C5.29765 8.1325 3.64185 6.53584 3.64185 4.56625C3.64185 2.59666 5.29765 1 7.34018 1C9.38271 1 11.0385 2.59666 11.0385 4.56625Z" stroke="black"/>
</svg>
