<svg width="100" height="79" viewBox="0 0 100 79" fill="none" xmlns="http://www.w3.org/2000/svg">
<path d="M51.2226 0.355629C48.0776 1.13873 46.5051 1.88624 44.4561 3.55923C41.4541 5.97972 40.8347 7.15437 40.5964 10.5715C40.4534 12.8497 40.5964 13.9531 41.1682 14.9854C42.1212 16.7296 42.1689 16.6228 40.6441 16.4448C32.9722 15.4837 27.6353 14.843 27.2064 14.843C26.8729 14.843 26.6823 15.8397 26.6823 17.5127C26.6823 19.6484 26.5393 20.1823 25.9675 20.1823C25.1098 20.1823 25.1098 20.1467 25.9675 21.7129C26.5393 22.7452 26.6823 24.8809 26.6823 32.6052V42.2159L29.2078 42.5719C31.6856 42.9635 37.1179 43.6754 37.6897 43.6754C37.8803 43.6754 38.2615 44.1381 38.5951 44.7432C39.0716 45.5619 39.4051 45.7755 40.2152 45.6331C46.0763 44.6364 47.4582 44.5297 57.036 44.672L67.0904 44.8144L67.424 46.0959C68.0911 48.7655 70.7596 51.6488 73.9522 53.1438C81.6717 56.7745 91.8214 54.532 95.7287 48.3384C98.1113 44.4941 97.063 38.9768 93.3462 36.3427C92.1073 35.4528 91.9643 35.1324 91.9643 33.1391V30.8966L94.9663 29.4016C96.5865 28.5829 98.2543 27.693 98.6831 27.4082C99.3979 26.9811 98.8261 25.7708 92.5838 14.5582C88.7717 7.75949 85.5314 2.06421 85.2932 1.92183C85.1025 1.74385 83.3395 2.38457 81.4334 3.34565C77.669 5.23222 70.6643 8.43581 70.3307 8.43581C70.1877 8.43581 69.5683 7.58152 68.9488 6.54925C67.4716 4.09316 64.8508 2.171 61.5629 1.03194C58.4656 -0.000324249 53.9387 -0.320683 51.2226 0.355629ZM61.3723 3.70161C65.9468 5.80174 67.9958 9.71725 66.5186 13.526C64.9938 17.4059 60.7052 19.8264 55.2729 19.8264C46.3622 19.8264 40.787 12.8853 45.028 7.04758C47.4582 3.7372 51.0796 2.27779 56.1307 2.52695C58.3703 2.63374 59.7045 2.91851 61.3723 3.70161ZM89.8677 16.1956C95.014 25.4149 95.2999 26.0556 94.4898 26.5183C92.7744 27.4794 85.4361 30.7898 83.0059 31.7153C81.6717 32.2136 80.0515 32.6408 79.4797 32.6408C78.0025 32.6408 73.9998 34.1002 72.0938 35.2748C69.6159 36.841 56.7978 40.1514 45.3615 42.1804L41.4065 42.8567L40.787 41.9312C40.4058 41.4328 37.8326 36.841 35.0212 31.7509C32.2098 26.6607 29.8272 22.4248 29.7319 22.2825C29.6843 22.1757 33.0199 21.4638 37.1655 20.6807L44.6944 19.2568L46.2192 20.1823L47.7441 21.1078L44.0749 21.7485C40.6917 22.3537 40.4534 22.4604 40.787 23.1723C40.9776 23.5639 41.1682 24.6318 41.1682 25.4861C41.1682 27.0523 40.4534 27.7998 37.8326 28.9388C37.0226 29.2948 37.0702 29.4728 38.7857 32.5696C39.7863 34.3849 40.787 35.8444 40.9776 35.8444C41.1682 35.8444 41.9783 35.6664 42.7407 35.4528C44.6944 34.9545 47.3629 35.8088 48.5065 37.2682C48.9353 37.8377 49.6501 38.336 50.0313 38.336C51.175 38.336 61.7058 36.0223 66.1374 34.8121C71.7126 33.2459 77.3831 31.1813 81.3381 29.2236C84.626 27.6218 84.7213 27.515 84.2448 26.5183C83.2918 24.4538 84.2925 22.8164 87.4851 21.3926C88.2952 21.0366 88.2475 20.8586 86.9609 18.189C84.9596 13.9887 85.1502 14.1667 82.9582 14.5938C80.4327 15.0922 78.0502 14.3091 76.8589 12.5649L76.0012 11.2835L73.1421 12.7073C70.1401 14.2023 69.7589 14.1311 70.2354 12.2445C70.5213 11.2479 71.0931 10.8919 74.8099 9.36129C77.1448 8.40022 80.0992 7.11878 81.3381 6.47806C83.2442 5.51698 83.673 5.41019 84.0066 5.83734C84.2448 6.1221 86.8656 10.7851 89.8677 16.1956ZM78.2408 16.8008C79.2415 17.0855 80.7663 17.3347 81.6717 17.3347C83.1489 17.3347 83.3871 17.4771 83.9113 18.6517C84.2925 19.6128 84.3401 20.0043 83.9589 20.1111C82.8153 20.3959 81.2428 22.9232 81.0046 24.7741L80.7663 26.7319L75.0482 28.9744C69.0918 31.2881 63.3736 32.9967 55.8448 34.6341L51.4609 35.6308L50.1266 34.7053C48.3635 33.4595 46.934 32.9611 44.4085 32.6763C42.5977 32.4984 42.1689 32.3204 41.7877 31.4661C41.4541 30.6474 41.5494 30.2915 42.3118 29.6863C43.5984 28.6541 44.7897 26.5183 44.7897 25.2369C44.7897 24.2758 44.9327 24.2046 49.3166 23.2791C51.7944 22.7452 54.7964 22.3181 55.9877 22.3181C58.9897 22.3181 62.8971 21.1078 65.5656 19.3636C66.8045 18.5449 69.33 17.1923 71.1884 16.3736C74.524 14.9142 74.5717 14.9142 75.5247 15.5549C76.0488 15.9465 77.2878 16.4804 78.2408 16.8008ZM33.4487 18.1178L35.9742 18.5093L33.5917 18.9721C30.3038 19.6484 30.0179 19.6128 30.0179 18.5805C30.0179 17.5483 30.0655 17.5483 33.4487 18.1178ZM33.8299 35.9511C35.2118 38.4428 36.2125 40.5786 36.0695 40.7209C35.9266 40.8277 34.5447 40.7565 33.0199 40.6141L30.2561 40.2938L30.1608 34.9545C30.0179 28.7964 29.8749 28.7252 33.8299 35.9511ZM89.1052 32.8187C89.1052 33.1035 88.6764 33.3527 88.1522 33.3527C87.1039 33.3527 86.8656 32.8187 87.8187 32.534C88.8193 32.2136 89.1052 32.2848 89.1052 32.8187ZM87.8663 36.1291C97.1106 39.8666 95.1093 50.3673 84.8166 52.2183C80.4804 53.0014 76.1918 51.9335 73.1898 49.335C70.9978 47.3773 70.3784 45.9179 70.6166 42.9635C70.7596 41.1125 71.0931 40.2582 72.0461 39.1191C75.6676 35.0612 82.1482 33.8154 87.8663 36.1291ZM67.5193 41.0057L67.0428 42.2515H62.7065H58.3703L62.8971 41.0413C65.375 40.365 67.5669 39.831 67.7575 39.7955C67.9005 39.7955 67.8052 40.3294 67.5193 41.0057Z" fill="black"/>
<path d="M49.8912 6.33497C47.5086 7.36724 46.4126 11.6031 47.9851 14.0236C49.0811 15.7678 52.4643 17.334 55.1328 17.334C58.7543 17.334 58.516 15.1983 54.8945 14.8067C50.2247 14.344 48.6999 10.82 52.0355 8.18594C53.7986 6.76212 52.1784 5.3383 49.8912 6.33497Z" fill="black"/>
<path d="M76.8137 38.9064C75.2889 39.6895 73.8594 42.0032 73.8594 43.6762C73.8594 46.7018 77.0997 49.4071 81.2453 49.8699C83.5326 50.119 84.4856 49.7631 84.2473 48.624C84.152 47.9477 83.7232 47.7341 82.0077 47.5205C77.5285 46.951 75.6225 43.6762 78.3862 41.2557C79.7205 40.0811 79.8634 39.4048 79.0057 38.7641C78.2909 38.2301 78.1003 38.2301 76.8137 38.9064Z" fill="black"/>
<path d="M0 64.0489V78.999H10.0067H20.0135V76.6853C20.0135 74.7276 20.1564 74.3716 20.8712 74.3716C21.3 74.3716 28.0189 75.0835 35.7383 75.9734C49.033 77.4684 50.3672 77.5752 59.8975 77.5752C69.5706 77.5752 70.3807 77.504 78.4814 76.3294C85.2002 75.3327 87.6304 74.7988 90.2989 73.7665C95.2069 71.8799 99.2096 69.9934 99.7814 69.317C100.496 68.4272 99.3526 65.4727 97.8754 64.4761C96.3982 63.515 95.064 63.4794 89.7271 64.4405C84.2948 65.3659 76.7659 66.1846 73.1445 66.1846C70.6666 66.1846 55.5135 63.7641 55.9424 63.4438C56.0377 63.3726 58.0867 62.9099 60.4693 62.4471C66.3304 61.2725 67.5693 60.7385 68.6653 58.9587C69.8565 56.9654 69.8089 55.4348 68.57 54.5805C67.7122 54.011 66.2351 53.8686 57.2766 53.477C47.2699 53.0855 46.8887 53.0143 43.6961 51.9108C41.8377 51.2701 38.8833 50.6294 36.9773 50.4158C33.9752 50.0955 33.1652 50.1311 30.2585 50.8074C28.4001 51.2345 25.398 52.2668 23.5873 53.1567L20.2517 54.7585L20.1088 51.9464L19.9658 49.0988H10.0067H0V64.0489ZM16.6779 63.9065V76.5073H10.0067H3.33558V63.8709V51.2701H10.0067L16.6779 51.3057V63.9065ZM39.3122 53.1567C40.6464 53.4414 42.886 54.0466 44.3155 54.5449C46.6028 55.328 47.9847 55.506 55.4182 55.8263C60.0881 56.0399 64.5196 56.2179 65.282 56.2179C66.378 56.2179 66.7116 56.3959 66.7116 56.8942C66.7116 58.5672 65.3773 59.0299 54.3699 61.2013C48.5088 62.3403 43.6484 63.337 43.5531 63.4082C43.3149 63.6218 69.1418 68.2848 71.7149 68.5339C74.6217 68.7831 84.1995 67.8576 90.7277 66.7186C95.8264 65.7931 96.3029 65.8643 96.9224 67.4661C97.2083 68.1424 96.5888 68.4983 91.8714 70.4917C86.6774 72.663 86.2485 72.7698 78.6243 73.9089C71.2384 74.9767 70.1424 75.0479 60.7552 75.0479C51.3203 75.0479 49.8907 74.9411 35.5001 73.3393L20.2517 71.6663L20.1088 65.1524C19.9658 57.6773 19.7276 58.2112 24.5403 55.7552C30.2585 52.8363 34.3088 52.1244 39.3122 53.1567Z" fill="black"/>
</svg>
