<svg width="15" height="15" viewBox="0 0 15 15" fill="none" xmlns="http://www.w3.org/2000/svg">
<path d="M8.38428 1.18639C9.98134 0.731343 11.7389 1.10827 12.9613 2.33064C14.1837 3.55301 14.5606 5.31059 14.1055 6.90766M9.81459 3.18884C10.385 3.07522 11.042 3.27201 11.531 3.76096C12.0199 4.24991 12.2167 4.90692 12.1031 5.47734" stroke="black" stroke-linecap="round" stroke-linejoin="round"/>
<path d="M9.98356 14.2062C10.6345 14.3209 11.3038 14.3209 11.9548 14.2062C13.0011 14.0218 13.8439 13.3194 14.1342 12.3897L14.1958 12.1925C14.2598 11.9875 14.2922 11.7755 14.2922 11.5624C14.2922 10.623 13.4521 9.86148 12.4158 9.86149H9.52258C8.48624 9.86148 7.64611 10.623 7.64611 11.5624C7.64611 11.7755 7.67858 11.9875 7.74258 12.1925L7.80416 12.3897C8.09445 13.3194 8.93724 14.0218 9.98356 14.2062ZM9.98356 14.2062C5.46172 13.3684 1.92387 9.83051 1.08603 5.30866M1.08603 5.30866C0.971322 4.65769 0.971323 3.98843 1.08603 3.33745C1.27041 2.29113 1.97287 1.44834 2.90257 1.15804L3.09977 1.09647C3.30475 1.03246 3.51676 1 3.72979 1C4.6692 1 5.43075 1.84012 5.43074 2.87647L5.43074 5.76965C5.43075 6.80599 4.6692 7.64611 3.72978 7.64611C3.51675 7.64611 3.30474 7.61365 3.09977 7.54965L2.90257 7.48807C1.97287 7.19778 1.27041 6.35498 1.08603 5.30866Z" stroke="black"/>
</svg>
