<svg width="50" height="50" viewBox="0 0 50 50" fill="none" xmlns="http://www.w3.org/2000/svg">
<path d="M14.4116 0.234375C13.7183 0.644531 13.6792 0.830078 13.6694 3.28125C13.6694 5.41016 13.6694 5.43945 13.894 5.64453C14.2163 5.94727 14.6753 5.92773 14.9292 5.60547C15.1245 5.36133 15.1343 5.21484 15.1343 3.4082V1.46484H18.4546H21.7749V4.15039V6.83594L22.0483 7.13867C22.2534 7.36328 22.4292 7.45117 22.7612 7.49023C23.1421 7.5293 23.3179 7.48047 24.0991 7.08984L24.9976 6.64062L25.896 7.08984C26.6773 7.48047 26.853 7.5293 27.2339 7.49023C27.5659 7.45117 27.7417 7.36328 27.9468 7.13867L28.2202 6.83594V4.15039V1.46484H31.5405H34.8608V11.3281V21.1914H24.9976H15.1343V14.8047C15.1343 11.1719 15.0952 8.31055 15.0464 8.17383C14.8511 7.67578 14.021 7.62695 13.7769 8.0957C13.6987 8.22266 13.6694 10.3809 13.6694 14.7363V21.1816L8.86475 21.2109L4.05029 21.2402L3.71826 21.4746C3.54248 21.6016 3.30811 21.8848 3.21045 22.1094C3.03467 22.4902 3.0249 22.9688 3.0249 32.4316V42.3633L1.91162 42.3926C0.700684 42.4316 0.388184 42.5586 0.124512 43.0762C-0.0415039 43.3984 -0.0415039 45.7617 0.124512 46.084C0.378418 46.5918 0.710449 46.7188 1.8042 46.7578L2.82959 46.7969V47.8906C2.82959 49.7559 3.09326 50 5.15381 50C7.28272 50 7.51709 49.7949 7.51709 47.9199V46.7773H24.9976H42.478V47.9199C42.478 49.7949 42.7124 50 44.8413 50C46.9019 50 47.1655 49.7559 47.1655 47.8906V46.7969L48.1909 46.7578C49.2847 46.7188 49.6167 46.5918 49.8706 46.084C50.0366 45.7617 50.0366 43.3984 49.8706 43.0762C49.6069 42.5586 49.2944 42.4316 48.0933 42.3926L46.98 42.3633L46.9507 40.8008C46.9214 39.2969 46.9116 39.2383 46.687 39.0527C46.3745 38.7988 45.9741 38.8184 45.7202 39.0918C45.5151 39.3066 45.5054 39.4141 45.5054 40.8496V42.3828H35.5933H25.6812L25.7007 32.5488L25.73 22.7051L29.0308 22.6758L32.3218 22.6562V25.2051C32.3218 28.0176 32.3706 28.291 32.9175 28.5645C33.3862 28.8086 33.8257 28.7402 34.7632 28.2715L35.6421 27.832L36.4526 28.2715C37.6343 28.9062 38.3374 28.8672 38.7183 28.125C38.8355 27.8906 38.8648 27.3535 38.8648 25.2441V22.6562H42.1851H45.5054V29.6289V36.6113L45.7593 36.8066C45.9058 36.9238 46.0816 37.0117 46.1499 37.0117C46.4038 37.0117 46.7554 36.7871 46.8628 36.5527C46.9409 36.3867 46.9702 34.2676 46.9702 29.4141C46.9702 22.8906 46.9605 22.4902 46.7847 22.1094C46.687 21.8848 46.4526 21.6016 46.2769 21.4746L45.9448 21.2402L41.1401 21.2109L36.3257 21.1816V11.1719C36.3257 1.33789 36.3257 1.16211 36.1304 0.78125C36.0034 0.527344 35.7983 0.322266 35.5444 0.195312C35.1636 0 34.9878 0 24.978 0H14.7925L14.4116 0.234375ZM26.7554 3.66211V5.85938L26.0523 5.50781C25.6323 5.29297 25.1929 5.14648 24.9976 5.14648C24.8022 5.14648 24.3628 5.29297 23.9429 5.50781L23.2397 5.85938V3.66211V1.46484H24.9976H26.7554V3.66211ZM11.1304 25.2441C11.1304 27.3535 11.1597 27.8906 11.2769 28.125C11.6577 28.8672 12.3706 28.9062 13.5522 28.2715L14.3628 27.832L15.2319 28.2715C16.1694 28.7402 16.6089 28.8086 17.0776 28.5645C17.6245 28.291 17.6733 28.0176 17.6733 25.2051V22.6562L20.9741 22.6758L24.2651 22.7051L24.2944 32.5391L24.314 42.3828H14.4019H4.48975V32.5195V22.6562H7.81006H11.1304V25.2441ZM16.2085 24.8535C16.2085 26.0645 16.189 27.0508 16.1597 27.0508C16.1304 27.0508 15.7983 26.8945 15.4272 26.709C15.0366 26.5137 14.6069 26.3672 14.4019 26.3672C14.1968 26.3672 13.7671 26.5137 13.3765 26.709C13.0054 26.8945 12.6733 27.0508 12.644 27.0508C12.6147 27.0508 12.5952 26.0645 12.5952 24.8535V22.6562H14.4019H16.2085V24.8535ZM37.3999 24.8535C37.3999 26.0645 37.3804 27.0508 37.3511 27.0508C37.3218 27.0508 36.9898 26.8945 36.6187 26.709C36.228 26.5137 35.7983 26.3672 35.5933 26.3672C35.3882 26.3672 34.9585 26.5137 34.5679 26.709C34.1968 26.8945 33.8648 27.0508 33.8355 27.0508C33.8062 27.0508 33.7866 26.0645 33.7866 24.8535V22.6562H35.5933H37.3999V24.8535ZM48.5132 44.5508L48.4839 45.2637H24.9976H1.51123L1.48193 44.5508L1.45264 43.8477H24.9976H48.5425L48.5132 44.5508ZM6.05225 47.6562V48.5352H5.17334H4.29443V47.6562V46.7773H5.17334H6.05225V47.6562ZM45.7007 47.6562V48.5352H44.8218H43.9429V47.6562V46.7773H44.8218H45.7007V47.6562Z" fill="black"/>
<path d="M10.2319 35.1174C9.72412 35.3909 9.66553 35.6545 9.66553 37.6956V39.551L9.99756 39.9221L10.3296 40.2835L14.2456 40.3128C18.5815 40.3421 18.562 40.3421 18.9429 39.7171C19.1187 39.4339 19.1382 39.219 19.1382 37.6663C19.1382 35.7327 19.0503 35.3713 18.5425 35.1077C18.1323 34.8928 10.6226 34.9026 10.2319 35.1174ZM17.6733 37.6467V38.8674H14.4019H11.1304V37.6467V36.426H14.4019H17.6733V37.6467Z" fill="black"/>
<path d="M21.1206 13.7793C20.9546 13.8281 20.7007 14.0039 20.564 14.1699L20.3101 14.4727V16.3672C20.3101 17.8223 20.3394 18.3398 20.4468 18.5352C20.73 19.082 20.7788 19.0918 24.9976 19.0918C29.2163 19.0918 29.2651 19.082 29.5483 18.5352C29.6558 18.3398 29.6851 17.8223 29.6851 16.3672C29.6851 14.4727 29.6851 14.4629 29.4312 14.1699C29.2944 14.0039 29.021 13.8281 28.8257 13.7695C28.3765 13.6524 21.5601 13.6524 21.1206 13.7793ZM28.2202 16.4063V17.6758H24.9976H21.7749V16.4063V15.1367H24.9976H28.2202V16.4063Z" fill="black"/>
<path d="M31.4331 35.1077C30.9448 35.3713 30.8569 35.7424 30.8569 37.6663C30.8569 39.219 30.8765 39.4339 31.0522 39.7171C31.4331 40.3421 31.4136 40.3421 35.7397 40.3128L39.646 40.2835L39.9585 39.9612L40.2808 39.6487L40.3101 37.7444C40.3491 35.6448 40.2905 35.3909 39.7437 35.1077C39.3335 34.8928 31.8237 34.8928 31.4331 35.1077ZM38.8647 37.6467V38.8675H35.5933H32.3218V37.6467V36.426H35.5933H38.8647V37.6467Z" fill="black"/>
</svg>
