<svg width="100" height="89" viewBox="0 0 100 89" fill="none" xmlns="http://www.w3.org/2000/svg">
<path d="M0.160042 84.086C0.492256 85.3323 1.54752 86.7031 2.68095 87.3678L3.75576 88.0117L49.9725 88.0117H96.1892L97.264 87.3678C98.4365 86.6616 99.4722 85.2907 99.8045 83.9614C99.9412 83.4421 99.9803 83.9233 99.9608 61.2206L99.9022 27.3016L99.4722 26.4499C98.9055 25.3283 97.733 24.2274 96.6191 23.7705C95.6029 23.3758 95.6225 23.3758 95.8961 22.5035C96.0719 21.9842 96.326 21.7972 97.6353 21.3195C100.059 20.3848 99.9999 20.4887 99.9999 17.8923C99.9999 16.3137 99.9217 15.5452 99.7263 15.2336C99.5504 14.9844 98.7687 14.5897 97.7135 14.2366L95.9547 13.6343L95.4075 12.3049L94.8603 10.9548L95.5052 9.48006C96.5605 7.00832 96.5605 7.04987 94.8017 5.15971C93.766 4.05885 93.1211 3.51881 92.828 3.51881C92.5739 3.51881 91.6555 3.89268 90.7956 4.34964L89.2323 5.20126L87.9229 4.64043L86.5941 4.10039L86.0274 2.41795C85.2066 -0.0330276 85.148 -0.0745621 82.588 0.0292892C81.3959 0.0915985 80.3602 0.216225 80.2234 0.361618C80.1062 0.486244 79.7349 1.4417 79.4027 2.48026L78.7969 4.39118L77.6243 4.88969C76.9795 5.15971 76.3737 5.38819 76.2759 5.38819C76.1782 5.38819 75.4356 5.05585 74.5953 4.66121C73.755 4.26656 72.9147 3.93423 72.6998 3.93423C72.1721 3.93423 69.319 7.07063 69.319 7.65222C69.319 7.90147 69.6708 8.85694 70.1202 9.77087L70.9019 11.4533L70.4329 12.845L69.9444 14.2158L68.1465 14.9428C67.1694 15.3375 66.2705 15.836 66.1532 16.0437C65.9578 16.4383 66.1532 20.551 66.3877 20.9664C66.4659 21.1118 67.3648 21.5272 68.3615 21.9011C69.534 22.3373 70.2179 22.6904 70.257 22.9189C70.3157 23.2097 67.5016 23.2512 37.1334 23.2927C6.76521 23.3551 3.89255 23.3758 3.24767 23.7082C2.25102 24.1651 0.980804 25.4529 0.472717 26.4499L0.0427933 27.3016L0.00370026 61.366C-0.0158386 81.4515 0.0427933 83.7121 0.160042 84.086ZM2.52462 27.1977C2.77866 26.8238 3.22813 26.3046 3.52126 26.0761L4.06844 25.6399L37.5829 25.5776L71.0778 25.536L70.3938 27.1146C70.0225 27.987 69.7098 28.8594 69.7098 29.0671C69.7098 29.2541 70.3938 30.1265 71.2537 30.9988C72.3871 32.1828 72.9343 32.5982 73.3056 32.5982C73.5987 32.5982 74.4781 32.2243 75.2793 31.7466L76.745 30.895L78.0933 31.4558L79.4417 32.0374L80.0866 33.886C80.4384 34.9246 80.8683 35.8177 81.0637 35.9216C81.5718 36.2124 84.9526 36.1708 85.5388 35.8593C85.9297 35.6723 86.1446 35.1946 86.6136 33.7199L87.1804 31.8089L88.3724 31.2689C89.0173 30.9781 89.6426 30.7288 89.7599 30.7288C89.8771 30.7288 90.6393 31.0612 91.46 31.4558C92.2808 31.8505 93.1016 32.1828 93.297 32.1828C93.4729 32.1828 94.3327 31.4558 95.1535 30.5834C96.8927 28.7556 96.9709 28.444 96.1892 26.7823C95.9156 26.2007 95.7593 25.7437 95.8179 25.7437C95.8961 25.7437 96.2478 25.9722 96.6191 26.2838C97.948 27.3639 97.8503 24.456 97.8112 61.9268C97.7526 95.4719 97.7526 83.8575 97.3617 84.4183C97.1467 84.7299 96.6582 85.1661 96.2674 85.3946L95.5443 85.8308H49.992C4.73286 85.8308 4.42019 85.8308 3.65805 85.4153C3.18904 85.1661 2.73958 84.6884 2.50507 84.2106C2.11423 83.4629 2.11423 94.8695 2.0947 61.6568V27.8832L2.52462 27.1977ZM69.6512 16.7084C70.4915 16.3968 71.3123 16.0021 71.4882 15.8568C71.6445 15.6906 71.9376 15.0259 72.1331 14.382C72.3285 13.7173 72.6607 12.8034 72.8756 12.3672L73.2665 11.5364L72.4262 9.70855L71.5859 7.88071L72.2894 7.11217L73.0124 6.34366L74.693 7.15372L76.3541 7.94302L77.9175 7.17449C78.7578 6.75907 79.5785 6.42673 79.6958 6.42673C80.2234 6.42673 80.6729 5.67898 81.1419 4.0173L81.65 2.27254H82.7052H83.741L84.3859 4.03808C84.7181 4.99355 85.1089 5.86592 85.2262 5.96977C85.3434 6.07362 85.832 6.26057 86.3205 6.40597C86.8091 6.55136 87.5321 6.86293 87.9229 7.07064C88.9587 7.63145 89.4472 7.56914 91.1083 6.69675L92.5739 5.92824L93.297 6.67599L94.02 7.44451L93.2774 9.25159L92.5348 11.0587L93.2579 12.7411C93.6487 13.6758 94.0591 14.652 94.1959 14.9221C94.3718 15.3167 94.8408 15.566 96.1306 16.0437L97.8503 16.646V17.7469V18.8478L96.1697 19.5332C95.0167 19.9902 94.4304 20.3433 94.3132 20.6341C92.7303 24.7883 92.7498 24.4767 93.7074 26.5123L94.5086 28.174L93.7465 28.9633L92.9843 29.7526L91.421 29.0048C90.5611 28.5686 89.7794 28.2363 89.6622 28.2363C89.5645 28.2363 88.8414 28.5478 88.0597 28.9425C87.2585 29.3164 86.3791 29.7318 86.1055 29.8564C85.6756 30.0434 85.4802 30.3965 85.0112 31.9128L84.4249 33.7406L83.3501 33.8029L82.2753 33.8653L81.7281 32.2451C81.435 31.352 81.0833 30.5003 80.9465 30.3342C80.8097 30.1888 80.1453 29.8564 79.4613 29.6072C78.7773 29.3371 77.8784 28.984 77.4875 28.7971L76.7645 28.444L75.2793 29.2748C74.4585 29.7318 73.6769 30.1057 73.5401 30.1057C73.4228 30.1057 73.0124 29.7733 72.6411 29.3787L71.9963 28.6725L72.6998 27.0315C73.0906 26.1384 73.4228 25.266 73.4228 25.0791C73.4228 24.9129 73.2079 24.3521 72.9538 23.8536C72.6998 23.3551 72.3676 22.545 72.2308 22.0673C71.9181 20.9041 71.6836 20.7172 69.7489 20.0317L68.1465 19.4709V18.3908V17.2899L69.6512 16.7084Z" fill="black"/>
<path d="M13.5347 32.808C7.47083 34.4424 4.02402 41.0016 6.06657 46.9586C7.7687 51.9908 13.1942 55.1736 18.2155 54.1199C20.5985 53.6252 22.1091 52.808 23.8538 51.0661C28.2368 46.679 28.2155 39.9908 23.8325 35.5822C21.1942 32.9371 17.1091 31.8403 13.5347 32.808ZM15.2155 39.4532C15.2155 43.7973 15.2368 44.0768 15.6198 44.2919C15.8751 44.4209 17.8113 44.507 20.4283 44.507H24.8325L24.6836 45.1951C24.2581 47.2812 22.5134 49.7328 20.6623 50.8295C16.2793 53.4102 10.5985 51.6037 8.44955 46.9156C7.96019 45.8403 7.87508 45.4102 7.87508 43.4317C7.87508 41.4317 7.93891 41.0446 8.44955 39.9478C9.53466 37.5822 11.1517 36.0553 13.3432 35.2596C15.3644 34.5285 15.2155 34.2059 15.2155 39.4532ZM20.0666 35.6252C22.1517 36.6145 24.1091 39.1306 24.7049 41.5392L24.8325 42.1414H21.0878H17.3432V38.4639V34.7865L18.1517 34.9371C18.5772 35.0231 19.4496 35.3242 20.0666 35.6252Z" fill="black"/>
<path d="M44.315 40.7809C44.0058 41.1409 43.9895 41.5409 44.2173 42.0809C44.3963 42.4609 44.8194 42.4609 66.7549 42.4609H89.1297L89.3901 41.9609C89.6342 41.5009 89.6342 41.4209 89.3901 40.9609L89.1297 40.4609H66.8362C46.8047 40.4609 44.5428 40.5009 44.315 40.7809Z" fill="black"/>
<path d="M30.907 50.3534C30.2475 50.6329 30.056 51.5362 30.5241 52.0738C30.907 52.5039 31.3751 52.5039 60.0134 52.5039H89.1411L89.439 52.0093C89.8645 51.3856 89.673 50.6759 89.0134 50.3749C88.3538 50.0738 31.6304 50.0523 30.907 50.3534Z" fill="black"/>
<path d="M68.3474 57.7186C67.9857 58.0842 68.0283 58.8799 68.4325 59.267C68.6879 59.5466 69.3049 59.6111 71.5602 59.6111H74.3687L67.0708 66.9874L59.7517 74.3853L58.7091 74.1057C57.8581 73.8691 57.4751 73.8906 56.5602 74.1272L55.4325 74.4283L50.6027 69.439C46.4113 65.1164 45.773 64.3853 45.8581 63.9121C45.9219 63.6111 46.0283 63.0734 46.0921 62.7293C46.4325 60.9659 44.8581 58.6218 43.007 58.1057C39.7517 57.224 36.7942 60.4498 37.9006 63.6971L38.1559 64.3853L32.8793 69.7186L27.6027 75.0519L26.8368 74.7293C24.5389 73.7616 21.5815 75.6541 21.3262 78.2777C21.007 81.6756 24.3049 84.0627 27.3474 82.6433C29.39 81.7186 30.241 79.4175 29.4751 76.9229C29.3687 76.5788 30.3474 75.482 34.5602 71.2455C39.624 66.1272 39.7942 65.9982 40.3262 66.2347C41.0283 66.5573 42.8793 66.5788 43.4538 66.2562C43.8581 66.0412 44.3687 66.4928 48.8793 71.0304C52.9006 75.1164 53.8368 76.1487 53.7304 76.4928C53.6453 76.7293 53.5389 77.4175 53.4751 78.0197C53.3474 79.3315 53.8368 80.4928 54.9857 81.5035C55.8368 82.2562 56.7942 82.5143 58.3049 82.3638C60.7942 82.1057 62.4751 79.4175 61.6666 76.9444L61.3474 75.9982L68.6666 68.6003L75.9644 61.224V64.0627C75.9644 66.3422 76.0283 66.9659 76.3049 67.224C76.7517 67.6756 77.5176 67.6541 77.9432 67.181C78.4751 66.6003 78.4751 58.3207 77.9644 57.8046C77.6879 57.5035 76.9432 57.4605 73.1134 57.4605C69.9006 57.4605 68.5389 57.525 68.3474 57.7186ZM43.2198 60.8799C44.241 61.9121 44.0283 63.3745 42.7517 64.0412C41.0283 64.9229 39.2836 63.0089 40.2198 61.2455C40.7942 60.1272 42.2836 59.9552 43.2198 60.8799ZM58.9645 76.7939C60.1559 77.9982 59.5389 79.9121 57.8581 80.1702C57.2198 80.2777 56.9645 80.1917 56.39 79.6756C55.4325 78.8154 55.4325 77.6326 56.3687 76.7724C57.2623 75.9552 58.1347 75.9767 58.9645 76.7939ZM26.9219 77.353C27.2836 77.7186 27.4538 78.1057 27.4538 78.6433C27.4538 79.6971 27.1347 80.2347 26.2623 80.6003C25.6453 80.8584 25.4325 80.8584 24.8155 80.6003C23.9645 80.2347 23.624 79.6971 23.624 78.6863C23.624 77.0304 25.7517 76.1702 26.9219 77.353Z" fill="black"/>
<path d="M80.1274 10.8317C78.5529 11.3478 76.9785 12.5521 76.0423 13.9284C73.404 17.8209 74.8721 23.4123 79.1061 25.5844C80.2338 26.165 80.5317 26.208 82.5742 26.208C84.4253 26.208 84.9785 26.122 85.8295 25.7349C87.2125 25.0897 88.9785 23.3263 89.7232 21.8639C90.2764 20.7241 90.3402 20.4231 90.3402 18.4661C90.3402 16.4661 90.2976 16.208 89.6381 14.8747C88.8295 13.2188 87.4891 11.8854 85.8083 11.1112C84.2125 10.3585 81.8508 10.251 80.1274 10.8317ZM85.0849 13.3263C88.6593 15.1327 89.2764 19.8639 86.2976 22.6381C85.3827 23.4983 83.7444 24.165 82.5742 24.165C80.5742 24.165 78.2976 22.6166 77.4891 20.7026C75.8508 16.8532 78.4678 12.7671 82.5742 12.7671C83.6593 12.7671 84.2338 12.8962 85.0849 13.3263Z" fill="black"/>
</svg>
