<svg width="27" height="26" viewBox="0 0 27 26" fill="none" xmlns="http://www.w3.org/2000/svg">
<path d="M11.3049 0C5.39904 0 0.588379 4.81066 0.588379 10.7166C0.588379 16.6225 5.39904 21.4331 11.3049 21.4331C13.8732 21.4331 16.2318 20.5211 18.0802 19.0073L24.4788 25.4058C24.5775 25.5087 24.6958 25.5908 24.8267 25.6473C24.9576 25.7039 25.0984 25.7338 25.241 25.7352C25.3836 25.7367 25.525 25.7097 25.657 25.6558C25.789 25.6019 25.9089 25.5222 26.0098 25.4214C26.1106 25.3206 26.1903 25.2006 26.2442 25.0686C26.2981 24.9366 26.3251 24.7952 26.3236 24.6526C26.3222 24.51 26.2923 24.3692 26.2357 24.2383C26.1791 24.1074 26.097 23.9892 25.9942 23.8904L19.5956 17.4919C21.1095 15.6434 22.0215 13.2848 22.0215 10.7166C22.0215 4.81066 17.2108 0 11.3049 0ZM11.3049 2.14331C16.0525 2.14331 19.8782 5.969 19.8782 10.7166C19.8782 15.4641 16.0525 19.2898 11.3049 19.2898C6.55738 19.2898 2.73169 15.4641 2.73169 10.7166C2.73169 5.969 6.55738 2.14331 11.3049 2.14331Z" fill="black"/>
</svg>
