<svg width="92" height="151" viewBox="0 0 92 151" fill="none" xmlns="http://www.w3.org/2000/svg">
<g filter="url(#filter0_d_2815_1231)">
<path d="M4.416 134.003C4.416 138.659 7.464 140.963 11.376 140.963C15.264 140.963 18.528 138.659 18.528 134.003V123.947H14.424V134.027C14.424 136.019 13.392 137.171 11.448 137.171C9.504 137.171 8.52 136.019 8.52 134.027V123.947H4.416V134.003ZM32.2819 136.907C32.2099 131.915 24.9619 133.427 24.9619 131.291C24.9619 130.643 25.4899 130.259 26.4499 130.259C27.6019 130.259 28.2979 130.859 28.4179 131.771H32.2099C31.9459 129.131 30.0259 127.211 26.5699 127.211C23.0659 127.211 21.1219 129.083 21.1219 131.363C21.1219 136.283 28.4179 134.723 28.4179 136.883C28.4179 137.483 27.8659 137.963 26.8099 137.963C25.6819 137.963 24.8419 137.339 24.7459 136.403H20.6899C20.8819 138.995 23.2819 140.987 26.8579 140.987C30.2179 140.987 32.2819 139.235 32.2819 136.907ZM40.6967 130.499C42.0647 130.499 43.2167 131.339 43.2167 132.803H38.0807C38.3207 131.315 39.3527 130.499 40.6967 130.499ZM47.1047 136.355H42.7367C42.4007 137.075 41.7527 137.651 40.6007 137.651C39.2807 137.651 38.2007 136.835 38.0567 135.083H47.3447C47.3927 134.675 47.4167 134.267 47.4167 133.883C47.4167 129.803 44.6567 127.211 40.7447 127.211C36.7607 127.211 33.9767 129.851 33.9767 134.099C33.9767 138.347 36.8087 140.987 40.7447 140.987C44.0807 140.987 46.4567 138.971 47.1047 136.355ZM53.6858 134.579C53.6858 132.275 54.8138 131.603 56.7578 131.603H57.8858V127.259C56.0858 127.259 54.6218 128.219 53.6858 129.635V127.403H49.5818V140.795H53.6858V134.579ZM64.9333 140.795H69.0373V123.947H64.9333V140.795ZM78.3234 123.947H72.0114V140.795H78.3234C83.6994 140.795 87.1554 137.363 87.1554 132.371C87.1554 127.355 83.6994 123.947 78.3234 123.947ZM76.1154 137.243V127.451H78.0594C81.1554 127.451 82.9794 129.275 82.9794 132.371C82.9794 135.467 81.1554 137.243 78.0594 137.243H76.1154Z" fill="black"/>
<path d="M41.9628 0.274801C34.0619 1.78564 27.6223 6.7392 24.3282 13.8723C22.5449 17.6866 22.3963 18.6277 22.2724 26.1076L22.1734 32.8445L21.5294 32.9931C18.1362 33.6866 16.4025 34.3801 14.0495 35.9404C12.0681 37.2531 9.59133 39.8537 8.37771 41.8599C7.93189 42.6277 7.21362 44.2129 6.7678 45.4017L6 47.5813V68.6339V89.6866L6.56966 91.5441C8.57585 97.9095 13.356 102.541 19.7461 104.349C21.257 104.77 22.9164 104.795 46 104.795C69.0836 104.795 70.743 104.77 72.2539 104.349C78.6687 102.541 83.4241 97.9095 85.4303 91.5441L86 89.6866V68.6339V47.5813L85.2322 45.4017C84.7864 44.2129 84.0681 42.6277 83.6223 41.8599C82.4087 39.8537 79.9319 37.2531 77.9505 35.9404C75.5975 34.3801 73.8638 33.6866 70.4706 32.9931L69.8266 32.8445L69.7276 26.1076C69.6285 20.0147 69.5542 19.1726 69.0588 17.5132C67.87 13.5256 66.0372 10.3553 63.2136 7.35839C58.8297 2.75158 53.2322 0.250033 46.743 0.0271229C44.8607 -0.0471805 43.2508 0.0271229 41.9628 0.274801ZM51.5728 4.85684C59.1022 7.25932 64.3529 13.3027 65.5418 20.9064C65.6904 21.8723 65.8142 24.894 65.8142 27.6185V32.5968H46H26.1858V27.5689C26.1858 22.2438 26.3839 20.312 27.2012 17.7361C29.356 11.024 35.2012 5.87232 42.3096 4.36149C44.291 3.94044 49.6161 4.23765 51.5728 4.85684ZM72.2786 37.5751C76.8854 39.3584 79.8328 42.3801 81.3684 46.8383L82.0371 48.8197V68.5101C82.0371 90.1572 82.0867 89.3893 80.5015 92.7825C79.3622 95.1602 76.613 97.9838 74.2353 99.1479C70.9907 100.758 72.0805 100.708 46 100.708C22.8173 100.708 22.2972 100.708 20.4892 100.188C17.9628 99.4946 16.2291 98.4544 14.1486 96.3986C12.2663 94.5163 10.9536 92.1881 10.3096 89.5627C9.81424 87.5813 9.81424 49.959 10.3096 47.9528C11.6471 42.5287 16.1548 38.1695 21.6037 37.055C22.1486 36.9559 33.418 36.8816 46.6192 36.8816L70.644 36.9311L72.2786 37.5751Z" fill="black"/>
<path d="M44.5136 47.879C41.6653 48.201 38.6189 49.9595 36.7861 52.3372C33.2938 56.944 33.6158 63.3589 37.5787 67.4951L38.7923 68.7583L37.0585 76.0152C35.8201 81.0926 35.3496 83.5199 35.4239 84.1886C35.622 85.5508 36.6127 86.9378 37.8759 87.557C38.9161 88.0524 39.3372 88.0771 46.0245 88.0771C54.074 88.0771 54.5694 87.9533 55.783 86.1453C56.8975 84.461 56.848 83.9162 54.9409 76.0152L53.2071 68.7583L54.396 67.5199C56.4517 65.3898 57.6158 62.4425 57.6406 59.4703C57.6406 55.0369 55.0647 50.9254 51.1019 49.0431C49.5415 48.3248 46.7923 47.6313 45.752 47.7552C45.5539 47.7799 44.9842 47.8295 44.5136 47.879ZM49.1205 52.7583C54.396 55.2103 55.04 62.5415 50.2598 65.8357C49.6653 66.2319 49.0957 66.8511 48.9471 67.1979C48.7737 67.6932 49.1205 69.5261 50.5818 75.6189C51.622 79.9285 52.4146 83.5942 52.3403 83.7676C52.1421 84.2877 39.8573 84.2629 39.6592 83.7676C39.5848 83.5694 40.3774 79.9038 41.3929 75.6189C42.7304 70.071 43.2257 67.6437 43.0771 67.2474C42.9533 66.9502 42.2598 66.2319 41.5415 65.6871C37.8759 62.8635 37.43 57.5137 40.6251 54.3186C42.1112 52.8326 43.7706 52.1638 45.9997 52.1638C47.4362 52.1638 48.1545 52.3124 49.1205 52.7583Z" fill="black"/>
</g>
<defs>
<filter id="filter0_d_2815_1231" x="0.414062" y="0" width="90.7422" height="148.987" filterUnits="userSpaceOnUse" color-interpolation-filters="sRGB">
<feFlood flood-opacity="0" result="BackgroundImageFix"/>
<feColorMatrix in="SourceAlpha" type="matrix" values="0 0 0 0 0 0 0 0 0 0 0 0 0 0 0 0 0 0 127 0" result="hardAlpha"/>
<feOffset dy="4"/>
<feGaussianBlur stdDeviation="2"/>
<feComposite in2="hardAlpha" operator="out"/>
<feColorMatrix type="matrix" values="0 0 0 0 0 0 0 0 0 0 0 0 0 0 0 0 0 0 0.25 0"/>
<feBlend mode="normal" in2="BackgroundImageFix" result="effect1_dropShadow_2815_1231"/>
<feBlend mode="normal" in="SourceGraphic" in2="effect1_dropShadow_2815_1231" result="shape"/>
</filter>
</defs>
</svg>
