<svg width="50" height="50" viewBox="0 0 50 50" fill="none" xmlns="http://www.w3.org/2000/svg">
<path d="M15.3686 0.138672C12.351 0.685547 9.8901 2.69727 8.68893 5.58789C8.21041 6.75977 8.09323 7.56055 8.09323 9.79688V11.8086L7.76119 12.2383C7.35104 12.7754 7.21432 13.3711 7.21432 14.582C7.21432 15.8223 7.39987 16.418 7.9858 16.9941C8.51315 17.5312 9.16745 17.7656 10.0854 17.7656H10.6811L10.8667 18.2734C11.1303 19.0645 11.726 20.002 12.3315 20.5977L12.8784 21.1348V21.916V22.6973L9.87057 23.8984C6.64791 25.1777 6.1694 25.4512 5.59323 26.291C4.93893 27.248 4.87057 27.5801 4.87057 30.0117V32.1992L3.3276 32.2383C1.85299 32.2676 1.77487 32.2773 1.27682 32.5508C0.231897 33.1367 -0.0513058 33.8008 0.00728797 35.666C0.0365848 36.75 0.0756474 37.0137 0.251429 37.3555C0.485804 37.7949 1.04244 38.332 1.41354 38.4688L1.64791 38.5664V44.2793V49.9922H24.9878H48.3276V44.2793V38.5664L48.562 38.4688C48.9331 38.332 49.4897 37.7949 49.7241 37.3555C49.8999 37.0137 49.9389 36.75 49.9682 35.666C50.0268 33.8008 49.7436 33.1367 48.6987 32.5508C48.2006 32.2773 48.1225 32.2676 46.6479 32.2383L45.1049 32.1992V29.8945C45.1049 27.7754 45.0854 27.5605 44.8999 27.1797C44.4799 26.3008 43.5424 25.7734 42.3999 25.7734H41.8823L41.9018 24.1914L41.9311 22.5996L43.5229 22.5703L45.1049 22.5508V20.2461C45.1049 18.5273 45.0756 17.873 44.9682 17.6289C44.7827 17.1797 44.2651 16.6133 43.7964 16.3691C43.396 16.1543 43.3471 16.1543 38.7085 16.1543C34.0893 16.1543 34.0112 16.1543 33.6303 16.3691C33.1714 16.6133 32.7026 17.0918 32.4487 17.5703C32.2827 17.873 32.2631 18.1953 32.2339 20.2266L32.1948 22.5508H33.8159H35.437V24.1621V25.7734H31.6479H27.8589L27.3706 25.4023C27.0385 25.1484 25.9839 24.6797 23.9331 23.8691L20.9839 22.6973V21.916V21.125L21.5014 20.6172L22.019 20.1094H22.9956C23.8452 20.1094 24.0405 20.0801 24.4702 19.8652C25.2905 19.4551 25.769 18.6641 25.769 17.7168C25.769 17.2578 25.8178 17.1211 26.1108 16.7402C26.521 16.1934 26.5991 15.8516 26.5991 14.543C26.5991 13.2441 26.5307 12.9121 26.1108 12.2871L25.769 11.7891V9.8457C25.769 7.15039 25.4956 5.96875 24.4897 4.25977C23.9233 3.2832 22.3413 1.74023 21.3549 1.18359C19.5288 0.148438 17.3608 -0.232422 15.3686 0.138672ZM19.1772 1.97461C21.4819 2.73633 23.2592 4.61133 23.9331 6.99414C24.1089 7.64844 24.1479 8.00977 24.1479 9.51367L24.1577 11.2715H23.7671H23.3764L23.3471 10.4609L23.3178 9.66016H16.8823H10.437V10.4902V11.3203H10.0366H9.6362L9.67526 9.43555C9.73385 7.31641 9.84127 6.81836 10.5639 5.41211C11.1401 4.28906 12.4194 3.01953 13.562 2.45312C14.8803 1.78906 15.5249 1.64258 17.0776 1.69141C18.1811 1.71094 18.5229 1.75977 19.1772 1.97461ZM21.7651 13.9863C21.7651 16.7598 21.6967 17.3262 21.2964 18.1562L21.1303 18.498L19.0112 18.5273L16.8823 18.5469V19.3281V20.0996L18.2299 20.1289L19.5678 20.1582L18.9331 20.4707C17.1362 21.3594 15.0073 20.9883 13.562 19.5332C13.2104 19.1816 12.81 18.6641 12.6635 18.3906C12.1557 17.4434 12.0971 16.9941 12.0971 14.0352V11.3203H16.9311H21.7651V13.9863ZM10.437 14.4941V16.1055H9.89987C9.45065 16.1055 9.31393 16.0664 9.11862 15.8613C8.88424 15.6367 8.87448 15.5684 8.87448 14.5137C8.87448 13.7812 8.91354 13.3613 9.00143 13.2539C9.20651 13 9.48971 12.8926 9.97799 12.8828H10.437V14.4941ZM24.7046 13.166C24.9878 13.4492 24.9878 13.4688 24.9878 14.543C24.9878 15.5586 24.978 15.6367 24.7436 15.8613C24.5483 16.0664 24.4116 16.1055 23.9135 16.1055H23.3276V14.5625C23.3276 13.7129 23.3569 12.9805 23.396 12.9512C23.4253 12.9121 23.6694 12.8828 23.9331 12.8828C24.3335 12.8828 24.4604 12.9316 24.7046 13.166ZM24.2065 17.873C24.2065 17.9316 24.0796 18.1074 23.9233 18.2637C23.7085 18.4688 23.5424 18.5469 23.2788 18.5469C22.9565 18.5469 22.9272 18.5273 22.9858 18.3223C23.0249 18.2051 23.0737 18.0293 23.0932 17.9316C23.1323 17.8047 23.2495 17.7656 23.6792 17.7656C23.9917 17.7656 24.2065 17.8047 24.2065 17.873ZM43.2983 18.0098C43.5327 18.2344 43.5424 18.293 43.5424 19.6211V20.9883H38.7085H33.8745V19.6211C33.8745 18.293 33.8842 18.2344 34.1186 18.0098L34.353 17.7656H38.7085H43.0639L43.2983 18.0098ZM15.3686 22.3555C15.8276 22.4727 16.4526 22.5508 16.9311 22.5508C17.4096 22.5508 18.0346 22.4727 18.4936 22.3555C18.9135 22.248 19.2749 22.1602 19.2944 22.1602C19.3042 22.1602 19.3237 22.3262 19.3237 22.5215C19.3237 22.8633 19.226 22.9805 18.1323 24.084L16.9311 25.2852L15.7397 24.0938C14.6264 22.9805 14.5385 22.8633 14.5385 22.5312C14.5385 22.3262 14.5581 22.1602 14.5678 22.1602C14.5874 22.1602 14.9487 22.248 15.3686 22.3555ZM40.3198 24.1621V25.7734H38.7085H37.0971V24.1621V22.5508H38.7085H40.3198V24.1621ZM14.6069 25.3047L15.6909 26.4082L14.4311 27.4141L13.1714 28.4102L12.3315 26.7402C11.8725 25.8223 11.5307 25.0312 11.5796 24.9922C11.6674 24.9043 13.269 24.2305 13.4155 24.2207C13.4741 24.2109 14.0014 24.709 14.6069 25.3047ZM21.3354 24.5625C21.8139 24.7578 22.2436 24.9434 22.2827 24.9922C22.3315 25.0312 21.9897 25.8223 21.521 26.75C20.7495 28.2832 20.6616 28.4199 20.5151 28.293C20.4272 28.2148 19.8901 27.7852 19.3237 27.3359C18.7573 26.8867 18.2592 26.4863 18.2006 26.4375C18.103 26.3496 20.1635 24.2109 20.3491 24.2109C20.4077 24.2109 20.8471 24.3672 21.3354 24.5625ZM11.2671 28.2148C11.9897 29.6602 12.6147 30.8516 12.644 30.8516C12.6831 30.8516 13.6401 30.1094 14.7827 29.1914C15.9253 28.2734 16.8921 27.5312 16.9214 27.5312C16.9604 27.5312 17.9174 28.2734 19.06 29.1914C20.2026 30.0996 21.1596 30.8516 21.1987 30.8516C21.2475 30.8516 21.8725 29.6699 22.5952 28.2246L23.9038 25.5879L25.0073 26.0371C25.6128 26.2812 26.1596 26.5156 26.228 26.5645C26.3061 26.6328 26.2671 26.7793 26.0815 27.1211C25.8178 27.5801 25.8178 27.5996 25.7885 29.8945L25.7495 32.2188H16.0913H6.4233L6.4526 30.0898C6.4819 27.7266 6.53073 27.5508 7.23385 26.877C7.48776 26.6328 9.0112 25.9004 9.9194 25.5879C9.93893 25.5781 10.5444 26.7598 11.2671 28.2148ZM43.2592 27.6191C43.4936 27.8047 43.4936 27.8242 43.5229 30.0117L43.5522 32.2188H35.4956H27.4292V30.0703V27.9121L27.6733 27.6777L27.9077 27.4336H35.4663C42.771 27.4336 43.0444 27.4434 43.2592 27.6191ZM48.0737 34.084C48.3178 34.2793 48.3276 34.3086 48.3276 35.4512C48.3276 36.5645 48.3178 36.6328 48.0835 36.8574L47.8491 37.1016H24.9878H2.12643L1.89205 36.8574C1.65768 36.6328 1.64791 36.5645 1.64791 35.4512C1.64791 34.3086 1.65768 34.2793 1.90182 34.084L2.16549 33.8789H24.9878H47.81L48.0737 34.084ZM46.7651 41.8867V45.1094H24.9878H3.21041V41.8867V38.6641H24.9878H46.7651V41.8867ZM46.7651 47.5508V48.332H24.9878H3.21041V47.5508V46.7695H24.9878H46.7651V47.5508Z" fill="black"/>
</svg>
